<?xml version="1.0" encoding="UTF-8"?>
<svg id="Layer_1" xmlns="http://www.w3.org/2000/svg" version="1.1" viewBox="0 0 1217 1200">
  <!-- Generator: Adobe Illustrator 30.0.0, SVG Export Plug-In . SVG Version: 2.1.1 Build 123)  -->
  <defs>
    <style>
      .st0 {
        fill: #c21c2d;
      }

      .st1 {
        fill: #f6f9fd;
      }

      .st2 {
        fill: #b92c38;
      }

      .st3 {
        fill: #0b9ddf;
      }

      .st4 {
        fill: #094295;
      }

      .st5 {
        fill: #c11f2f;
      }

      .st6 {
        fill: #c5182b;
      }

      .st7 {
        fill: #01a0e7;
      }

      .st8 {
        fill: #fcdedc;
      }

      .st9 {
        fill: #feefee;
      }

      .st10 {
        fill: #094396;
      }

      .st11 {
        fill: #044197;
      }

      .st12 {
        fill: #c21c2e;
      }

      .st13 {
        fill: #f3fdfe;
      }

      .st14 {
        fill: #eff5fb;
      }

      .st15 {
        fill: #f5fdfe;
      }

      .st16 {
        fill: #f6feff;
      }

      .st17 {
        fill: #0a4395;
      }

      .st18 {
        fill: #094395;
      }

      .st19 {
        fill: #089fe3;
      }

      .st20 {
        fill: #fff;
        opacity: 0;
      }

      .st21 {
        fill: #0b4396;
      }

      .st22 {
        fill: #c31c2d;
      }

      .st23 {
        fill: #c31b2d;
      }

      .st24 {
        fill: #0b4496;
      }

      .st25 {
        fill: #c21d2e;
      }

      .st26 {
        fill: #0c4495;
      }

      .st27 {
        fill: #0a4295;
      }

      .st28 {
        fill: #fdeae9;
      }

      .st29 {
        fill: #feeeec;
      }

      .st30 {
        fill: #024198;
      }

      .st31 {
        fill: #f1fcfe;
      }

      .st32 {
        fill: #034197;
      }

      .st33 {
        fill: #fafcfd;
      }

      .st34 {
        fill: #fef1f0;
      }

      .st35 {
        fill: #fdfefe;
      }

      .st36 {
        fill: #0a4396;
      }

      .st37 {
        fill: #bf2131;
      }

      .st38 {
        fill: #c71428;
      }

      .st39 {
        fill: #fef6f5;
      }

      .st40 {
        fill: #0b4395;
      }
    </style>
  </defs>
  <path class="st20" d="M0,422V0h1217v1200H0V422M1063.53,300.95c-54.01-79.38-123.48-141.39-209.12-184.86-90.33-45.85-186.27-64.93-287.33-58.3-39.82,2.61-78.89,9.5-117.15,20.82-94.62,27.98-176.01,77.74-244.33,148.88-40.92,42.61-74.15,90.6-99.53,143.93-38.73,81.39-56.43,167.17-53.32,257.29,1.33,38.57,6.48,76.56,15.93,113.95,25.73,101.88,76.44,189.41,151.58,262.78,44.46,43.41,94.91,78.28,151.24,104.49,87.18,40.57,178.79,57.11,274.69,50.18,48.56-3.51,95.81-13.29,141.67-29.53,83.33-29.51,155.55-76.31,216.68-140.2,44.73-46.76,80.26-99.71,106.29-158.92,33.1-75.29,48.58-154.1,46.46-236.4-.79-30.53-3.86-60.78-9.67-90.73-14.2-73.22-42.18-140.81-84.09-203.38h0Z"/>
  <path class="st11" d="M1063.73,301.25c41.7,62.28,69.68,129.86,83.88,203.09,5.81,29.95,8.88,60.2,9.67,90.73,2.12,82.29-13.36,161.1-46.46,236.4-26.03,59.21-61.56,112.16-106.29,158.92-61.12,63.89-133.34,110.69-216.68,140.2-45.86,16.24-93.11,26.02-141.67,29.53-95.9,6.93-187.51-9.61-274.69-50.18-56.33-26.21-106.79-61.08-151.24-104.49-75.14-73.36-125.85-160.9-151.58-262.78-9.44-37.39-14.59-75.39-15.93-113.95-3.11-90.12,14.6-175.9,53.32-257.29,25.38-53.34,58.61-101.33,99.53-143.93,68.32-71.14,149.71-120.9,244.33-148.88,38.26-11.32,77.33-18.21,117.15-20.82,101.06-6.62,197,12.45,287.33,58.3,85.64,43.47,155.11,105.48,209.32,185.15M99.01,501.58c-5.96,27.72-9.58,55.77-10.77,84.07-2.65,63.13,5.39,124.89,25.41,184.92,31.67,94.92,86.06,174.45,163.35,237.91,88.36,72.55,190.06,111.45,304.19,117.25,52.37,2.66,104.09-2.82,154.83-16.34,92.52-24.66,172.19-71.33,239.16-139.73,37.21-38,67.91-80.71,91.67-128.24,47.94-95.92,64.55-197.15,50.27-303.44-7.23-53.83-22.66-105.26-46.7-153.91-54.05-109.4-136.14-190.79-246.37-243.21-77.34-36.78-159.15-52.29-244.66-48.27-46.29,2.18-91.49,10.5-135.48,25.05-81.83,27.07-152.53,71.88-212.25,133.95-38.98,40.51-70.41,86.28-94.51,137.08-17.02,35.89-29.55,73.3-38.16,112.92h.02Z"/>
  <path class="st35" d="M99.07,501.16c8.54-39.2,21.08-76.61,38.1-112.5,24.09-50.8,55.53-96.57,94.51-137.08,59.73-62.07,130.43-106.88,212.25-133.95,44-14.56,89.19-22.87,135.48-25.05,85.51-4.02,167.32,11.49,244.66,48.27,110.23,52.42,192.32,133.81,246.37,243.21,24.04,48.65,39.47,100.08,46.7,153.91,14.28,106.28-2.34,207.52-50.27,303.44-23.76,47.54-54.46,90.24-91.67,128.24-66.98,68.4-146.65,115.07-239.16,139.73-50.75,13.52-102.46,19.01-154.83,16.34-114.12-5.8-215.83-44.69-304.19-117.25-77.29-63.47-131.69-142.99-163.35-237.91-20.03-60.03-28.06-121.78-25.41-184.92,1.19-28.3,4.81-56.35,10.83-84.49M540.51,232.87c.17-.29.33-.58.99-1.02.16-.29.32-.58,1.11-1.18.75-1.64,2.19-3.3,2.14-4.92-.2-6.14,2.69-9.04,9.11-8.79-.98-3.97-1.8-7.28-2.68-10.83-2.51.55-4.71,1.03-6.83,1.49-.33-.39-.67-.61-.73-.89-.64-2.9-1.25-5.81-1.78-9.36.06-.43.12-.86,1-1.35,2.4-.52,4.8-1.05,7.71-1.68-.93-3.9-1.75-7.36-2.62-11.01-3.07.69-5.62,1.26-8.53,1.92-1.4-7.05-2.74-13.81-4.14-20.9-4.07,1.06-7.71,2.12-11.41,2.96-12.94,2.95-25.89,5.82-38.84,8.7,0,0-.02-.02.16-.73.55-3.84,2.98-5.33,6.64-6.1,8.76-1.85,17.44-4.09,26.16-6.16,7.02-1.66,14.04-3.29,21.29-4.99-.97-3.97-1.78-7.31-2.65-10.85-15.34,3.74-30.35,7.39-45.89,11.18.46-2.8.77-4.73,1.14-6.97-4.22-.36-8.26-.71-11.8-1.01-2.44,8.46-4.77,16.53-7.06,24.62,0,0-.03-.04-.57.28-.5.9-1,1.79-1.43,2.73,0,0-.05-.06-.64.21-.74,1.06-1.47,2.12-2.37,3.41,1.52.57,2.74,1.02,3.99,1.39,0,0-.07.06.29.63,2.15,1.43,4.3,2.87,6.79,4.53.91-1.83,1.64-3.28,2.22-4.81,0,0,.17,0,.6-.33.06-.35.12-.7.4-1.18,0,0,0-.25.58-.52.38-.13.75-.25,1.12-.34,0,0,.03.03-.05.89.78,5.03,1.56,10.06,2.2,15.7-.03.21-.06.42-.83.84-2.96.7-5.92,1.41-9.02,2.14.73,3.8,1.37,7.09,2.07,10.69-1.44-.15-2.37-.24-3.76-.85-1.74-.74-3.47-1.48-4.72-2.01-1.42,9.41-2.77,18.4-4.61,27.89-.64,1.99-1.28,3.98-1.93,6,2.97,1.52,5.6,2.86,8.66,4.73,1.06.62,2.13,1.25,4.13,2.42,1.81-13.15,3.5-25.49,5.31-38.6,1.36-.16,3.94-.48,6.57-.83,0,0-.05.03-.1.96.34,7.02.69,14.05,1.05,21.45,2.88-.77,5.08-1.42,7.31-1.94,12.24-2.84,24.48-5.64,36.74-8.47,0,0-.01.02-.18.71-5.05,2.41-10.1,4.83-15.21,7.27,1.18,1.4,2.76,3.25,4.38,5.04,0,0-.09.02-.05.62.33.48.67.96,1.06,1.38,0,0-.08.02-.04.73.95.53,2.11,1.72,2.82,1.49,3.82-1.21,7.52-2.76,11.22-4.25,0,0,.02.06.66.02.78-.67,1.57-1.34,2.33-2.02,0,0,.01.02.51-.13M255.16,877.2c-.16-.17-.32-.34-.32-1.19,6.32-11.69,12.65-23.37,18.96-35.07,3-5.56,2.44-10.77-1.69-15.62-.21-.24-.51-.4-1.17-.9-19.51,14.69-39.12,29.45-59.06,44.47,2.36,3,4.45,5.67,6.66,8.48,12.43-9.35,24.46-18.39,36.48-27.43-5.79,12.47-12.23,24.36-18.66,36.26-3.39,6.29-2.59,12.25,2.41,17.89,19.63-14.76,39.28-29.54,59.24-44.55-2.26-2.94-4.34-5.65-6.51-8.48-12.14,9.02-24.01,17.84-36.34,26.13M673.55,210.68c-.63,1.34-1.25,2.68-2.1,4.51,8.06,1.81,15.34,3.44,22.74,5.13,0,0,.12-.05.59.45,1.09.31,2.18.62,3.25,1.59.04.22.08.43-.19,1.35-1.3,5.1-2.6,10.2-4.1,15.5,0,0,.09.27-.4.73.29,1.23.28,3.32.92,3.53,3.52,1.2,7.19,1.94,11.21,2.94.95-4.98,1.75-9.2,2.94-14.04.69-2.37,1.38-4.75,2.19-7.52,9.28,2.38,18.38,4.71,27.86,7.14.94-3.97,1.79-7.57,2.66-11.24-9.55-2.45-18.49-4.74-27.77-7.12,1.04-3.92,1.92-7.22,2.83-10.62,7.39,1.87,14.24,3.61,21.39,5.43,1-4.05,1.85-7.51,2.73-11.09-7.43-1.88-14.3-3.62-21.42-5.42.98-3.66,1.82-6.79,2.76-10.31,9.26,2.37,18.03,4.62,27.02,6.92.98-4.02,1.83-7.49,2.72-11.14-5.82-1.49-11.05-2.84-17.02-4.37,3.28-3.78,6.04-6.97,8.9-10.26-3.59-2.81-6.68-5.22-10.24-8-2.11,5.92-9.17,8.26-9.59,15.49-3.44-.88-7.69-1.97-11.14-2.86.96-1.9,2.59-3.57,2.33-4.86-.9-4.51-2.45-8.89-3.82-13.52-4.03.8-7.7,1.53-11.37,2.26,1.09,4.59,2.06,8.7,3.23,13.62-6.2-1.57-11.43-2.89-17.05-4.31-.95,3.84-1.8,7.29-2.68,10.86,9.11,2.34,17.7,4.54,26.53,6.81-1.04,3.87-1.89,7.04-2.83,10.55-7.54-1.95-14.72-3.81-22.2-5.75-.94,3.84-1.79,7.32-2.72,11.17,7.6,1.93,14.77,3.75,22.19,5.63-.95,3.68-1.76,6.84-2.75,10.69-8.97-2.31-17.69-4.56-27.1-6.98,0,2.75,0,4.69-.49,7.11M420.5,618.99c12.79.65,25.64.68,38.34,2.08,37.84,4.17,73.53,15.7,105.94,35.57,44.01,26.98,91.04,43.94,142.67,47.72,27.86,2.04,55.56.84,82.93-4.72,62.05-12.6,115.34-41.52,159.55-86.93,1.73-1.77,3.11-4.95,2.93-7.34-1.44-19.04-1.91-38.31-5.28-57.04-14.7-81.76-53.73-150.22-116.99-203.93-68.07-57.79-147.34-85.24-236.82-82.85-23.04.62-45.82,3.24-68.13,8.76-96.53,23.88-170.67,78.51-221.5,163.95-31.98,53.75-47.17,112.41-47.28,174.96-.03,20.29,1.64,40.43,5.49,61,47.58-32.71,99.57-50.64,158.14-51.25M866.38,710.95c-48.02,18.42-97.63,25.5-148.9,21.23-40.9-3.41-79.99-13.63-116.7-31.92-58.37-29.08-119.33-36.96-182.92-23.17-48.6,10.54-90.74,33.64-127.07,67.55-3.54,3.3-4.14,6.02-1.74,10.09,2.27,3.85,3.8,8.14,6.01,12.04,7.51,13.24,15.17,26.39,22.96,39.9,1.85-1.5,2.75-2.21,3.63-2.95,89.99-74.99,191.27-95.29,302.73-60.19,40.33,12.7,80.57,23.85,122.89,26.7,60.12,4.05,118.51-3.88,175.1-24.57,2.15-.79,4.59-3.03,5.3-5.13,5.91-17.62,11.51-35.35,17.04-53.1,1.13-3.63,1.62-7.47,2.35-11.23.69-3.58,1.31-7.17,2.16-11.87-25.97,19.73-53,34.89-82.83,46.61M633.23,767.15c-34.04-8.4-68.44-10.15-103.06-4.77-53.86,8.38-100.57,31.61-139.97,69.23-9.2,8.79-17.41,18.62-26.18,28.07,18.64,17.72,37.85,32.7,58.97,45.58.71-.88,1.19-1.52,1.71-2.13,10.69-12.5,20.43-26,32.24-37.33,66.21-63.54,169.79-77.57,250.46-33.38,38.24,20.94,78.07,29.48,121.1,22.54,17.4-2.81,34.01-6.66,44.63-23.37,7.53-11.84,16.85-22.54,25.37-33.74-2.48-.57-4.08-.28-5.61.2-31.87,9.99-64.46,14.55-97.88,13.43-35.45-1.2-69.62-8.32-102.29-22.08-19.29-8.12-38.22-17.11-59.49-22.25M816.33,873.96c-.99.12-1.99.21-2.98.36-33.66,4.91-65.91.17-96.96-13.72-74.04-33.13-143.1-24.87-206.62,25.78-15.17,12.1-27.45,27.01-37.69,43.61,49.8,22.28,120.87,34.04,189.85,22.25,63.17-10.8,150.11-52.18,172.37-82.09-5.74,1.25-11.41,2.48-17.96,3.81M209.37,401.2c-3.9-1.76-7.81-3.51-11.82-5.32-4.74,11.16-9.33,22-14.07,33.17-5.83-2.57-11.37-5.01-17.21-7.59-1.97,4.7-3.74,8.9-5.56,13.23,5.97,2.51,11.42,4.8,17.19,7.22-4.8,11.02-9.34,21.46-13.95,32.03,13.78,5.93,27.28,11.75,41.29,17.78,4.01-11.14,7.87-21.85,11.9-33.03,10.37,4.56,20.04,8.81,30,13.19,1.9-4.53,3.67-8.76,5.51-13.14-10.04-4.27-19.61-8.35-30.04-12.78,5.63-11.05,10.94-21.47,16.39-32.16-10.03-4.24-19.5-8.25-29.63-12.61M282.65,300.87c12.99,15.11,25.97,30.21,39.49,45.93,4.02-4.3,7.48-8.66,11.59-12.3,12.72-11.25,25.68-22.23,38.56-33.31.76-.65,1.46-1.41,2.32-1.89,3.97-2.22,7.98-4.36,12.29-6.7-20.12-23.38-39.39-45.77-58.63-68.13-20.84,17.8-41.59,35.52-62.35,53.23-.63.53-1.33.98-2.05,1.5,6.33,7.3,12.33,14.21,18.79,21.66M899.66,268.15c4.22-4.88,8.43-9.76,12.8-14.82-3.62-3.34-6.97-6.43-10.48-9.66-4.99,6.12-9.69,11.89-14.74,18.1-9.88-8.14-19.45-16.03-29.34-24.18-2.56,3.13-4.92,6.03-7.36,9.01,9.75,8.08,19.18,15.89,28.7,23.78-7.17,9.73-16.41,15.2-27.59,17.41-11.28,2.23-21.25-2.86-31.46-6.64-.7,5.1-1.32,9.66-1.99,14.54,17.24,4.79,34.33,8.75,52.18-.51-3.25,19.12-1.44,36.48,9.73,52.03,4.31-2.37,8.41-4.63,12.95-7.13-7.59-8.58-11.6-18.18-11.33-29.69.25-10.97,1.47-21.4,8.52-30.75,10.08,8.34,19.79,16.36,29.78,24.62,2.65-3.26,5.12-6.29,7.66-9.42-9.28-7.58-18.18-14.82-27.03-22.13-1.18-.98-3.87-1.66-1-4.57M949.84,459.58c2.73,2.81,5.35,7.84,8.21,7.97,6.21.3,12.54-1.9,19.31-3.17,3.84,9.85,8.1,20.77,12.5,32.07,3.87-1.54,7.36-2.93,11-4.38-3.8-9.47-7.45-18.57-11.52-28.72,4.46,2.28,7.59,4.19,10.96,5.49,1.74.67,4.58,1.09,5.73.16,2.35-1.9,3.98-4.34,2.33-8.21-4.88-11.45-9.22-23.14-13.73-34.75-1.17-3.02-2.23-6.08-3.42-9.35-3.95,1.59-7.26,2.92-10.67,4.29,2.45,5.97,4.68,11.41,7.15,17.42-6.93-2.04-11.73-4.9-12.83-11.74-.23-1.44-1.12-2.76-1.66-4.16-2.05-5.35-4.09-10.71-6.21-16.28-4.07,1.62-7.53,3.01-11.02,4.4,4.88,12.28,9.38,24.06,14.27,35.66,1.59,3.78,1,5.99-2.74,7.41-3.69,1.4-6.87,1.43-8.45-3.07-.89-2.53-1.89-5.03-2.9-7.69-3.52,2.99-6.53,5.55-9.82,8.35,1.02,2.49,2.08,5.08,3.5,8.3M546.81,1061.13c-.51,4.9-1.02,9.8-1.56,14.98,4.05.39,7.61.74,11.38,1.1,1.09-10.46,2.11-20.32,3.13-30.13,6.1-.84,9.69,1.62,11.68,6.75,2.93,7.58,5.8,15.19,8.87,22.72.54,1.33,1.8,3.06,2.99,3.3,3.7.75,7.53.86,12.5,1.34-4.89-12.05-9.44-23.28-14.01-34.54,11.05-4.76,15.27-11.88,14.23-25.29-.7-9-4.95-14.36-13.8-15.79-9.62-1.55-19.37-2.28-29.49-3.41-1.98,19.72-3.91,38.89-5.9,58.97M1028.46,673.14c-10.23-2.04-20.45-4.08-31.07-6.2-.62,3.75-1.17,7.06-1.75,10.51,15.54,3.17,30.41,6.2,45.29,9.23-.65,1.08-1.21,1.26-1.78,1.39-14.56,3.39-29.14,6.73-43.68,10.23-1.72.41-4.05,1.4-4.63,2.75-1.19,2.78-1.39,5.98-2.04,9.25,24.46,4.94,48.37,9.78,72.73,14.7.65-3.63,1.24-6.96,1.89-10.56-15.09-3.06-29.62-6.02-44.15-8.97.6-1.16,1.14-1.34,1.69-1.47,14.4-3.39,28.82-6.72,43.19-10.22,1.51-.37,3.52-1.47,4-2.73,1.1-2.87,1.39-6.05,2.08-9.42-13.93-2.84-27.43-5.59-41.76-8.5M379.32,1018.92c12.59-20.05,25.18-40.11,37.85-60.3-3.3-2.04-6.07-3.74-8.99-5.55-8.72,12.72-15.94,26.05-25.19,37.95,1.3-14.19,3.28-27.94,4.99-41.72,1.16-9.35.99-9.37-7.74-13.58-.14-.07-.33-.05-.89-.12-12.94,20.6-25.96,41.35-39.21,62.45,3.22,1.98,5.99,3.68,9.11,5.6,8.23-13.02,16.23-25.68,24.23-38.34-1.03,15.21-2.91,30.04-4.88,44.86-.63,4.76,4.27,10.81,9,10.77.45,0,.9-.9,1.72-2.02M165.01,612.36c-5.65,1.87-11.6,3.12-16.87,5.75-9.59,4.77-14.77,12.8-13.85,23.82.94,11.32,7.28,18.88,18.64,21.97,14.83,4.03,29.37,2.53,43.14-4.18,10.77-5.25,15.87-14.41,14.73-24.86-1.22-11.17-8.17-19.47-20.21-21.63-8.04-1.45-16.46-.76-25.58-.87M847.04,922.28c-11.78,6.86-16.52,15.75-13.72,28.09,3.56,15.67,12.18,28.32,25.55,37.32,9.46,6.37,19.71,5.96,28.42-.27,8.47-6.07,11.87-15.42,9.12-26.49-3.61-14.56-11.68-26.32-23.75-35.15-7.51-5.49-15.85-7.47-25.62-3.5M999.58,753.99c-7.31-3.04-14.63-6.08-22.21-9.23-1.53,3.65-2.93,6.96-4.44,10.55,9,3.79,17.68,7.45,26.77,11.27-2.76,6.67-5.41,13.07-8.19,19.79-9.13-3.75-17.95-7.38-26.96-11.09-1.51,3.7-2.82,6.89-4.33,10.59,22.89,9.56,45.59,19.04,68.47,28.59,1.6-3.85,2.92-7.02,4.41-10.59-9.97-4.2-19.67-8.29-29.71-12.52,2.83-6.75,5.48-13.1,8.27-19.74,10.18,4.19,19.91,8.2,29.87,12.3,1.55-3.9,2.86-7.19,4.22-10.59-15.46-6.49-30.46-12.79-46.18-19.32M531,1036.56c.57-2.55,1.15-5.09,1.78-7.92-9.2-2.14-17.99-4.19-27.13-6.32,1.29-5.5,2.44-10.43,3.63-15.48,9.99,2.22,19.47,4.33,29.19,6.49.98-4.49,1.82-8.31,2.73-12.46-13.65-3.1-26.85-6.1-40.36-9.17-5.54,24.43-10.96,48.3-16.44,72.43,14.16,3.2,27.55,6.23,41.38,9.36.96-4.41,1.82-8.34,2.71-12.45-10.23-2.38-19.88-4.62-29.98-6.97,1.54-6.69,2.96-12.88,4.39-19.1,9.39,2.13,18.08,4.11,26.91,6.12.43-1.53.75-2.63,1.19-4.53M168.89,787.68c.53,1.16,1.05,2.32,1.68,3.69,3.98-1.5,7.66-2.88,11.66-4.38-3.55-9.79-6.97-19.21-10.53-29.05,6.35-2.28,12.3-4.41,18.42-6.61,3.35,9.02,6.45,17.36,9.67,26.03,4.13-1.54,7.79-2.91,11.88-4.44-3.17-8.86-6.21-17.35-9.37-26.19,5.26-1.89,10.02-3.59,14.98-5.37,3.56,9.61,6.93,18.69,10.4,28.04,4.26-1.62,7.91-3,11.94-4.53-4.81-13.15-9.46-25.84-14.23-38.87-23.4,8.58-46.39,17.01-69.76,25.58,4.43,12.05,8.71,23.71,13.27,36.1M1004.07,407.34c-1.43-3.84-2.85-7.68-4.3-11.6-7.54,2.98-14.59,5.77-21.77,8.6,1.69,4.17,3.23,7.95,4.84,11.92,3.81-1.58,7.14-2.96,10.8-4.48,7.72,19.58,15.32,38.84,23.07,58.5-3.98,1.55-7.46,2.91-11.32,4.42,1.66,4.21,3.15,8.01,4.71,11.97,7.67-3.06,14.84-5.92,22.03-8.79-2.34-5.88-4.49-11.29-6.82-17.14,8.78.95,16.58,1.8,24.78,2.69-.3-5.42-.54-9.84-.76-13.81-8.66-.76-16.87-1.47-25.37-2.22-.35,1.5-.78,3.35-1.5,6.48-5.23-13.3-10.03-25.5-14.83-37.69l1.01-.68c2.67,1.88,5.34,3.75,8.58,6.03,4.5-6.49,8.88-12.79,13.23-19.06-4.06-2.86-7.39-5.21-10.34-7.3-4.45,6.04-8.69,11.81-13.42,18.24-1.16-2.64-1.75-4-2.62-6.08M633.88,1048.44c4.4,1.35,8.83,2.74,8.91,8.52.06,4.4-1.83,7.71-5.98,9.49-5.88,2.51-11.82.33-14.7-5.5-1.08-2.18-1.8-4.53-2.72-6.88-3.64.8-6.99,1.54-11.58,2.55,2.6,5.79,4.35,11.38,7.41,16.13,5.02,7.81,13.22,8.23,21.43,7.12,7.42-1.01,12.94-4.83,15.81-12.08,6.08-15.32-1.11-30.05-16.86-34.46-3.99-1.12-8.19-1.91-11.79-3.82-1.89-1-3.73-4.13-3.64-6.22.09-2.07,2.21-4.85,4.19-5.88,6.66-3.46,11.82-.37,15.18,8.85,3.58-.48,7.25-.97,10.98-1.47-.28-2.06-.37-3.57-.7-5.02-2.29-10.18-9.18-15.82-19.41-15.93-11.61-.13-18.55,4.62-21.03,14.38-3.2,12.59,3.14,23.95,15.56,27.8,2.69.84,5.45,1.45,8.94,2.43M1018.36,622.98c-3.26.65-6.51,1.33-9.78,1.95-8.12,1.52-7.97,1.53-9.16,9.43-.48,3.19.31,4.61,3.42,5.83,21.64,8.49,43.18,17.22,64.76,25.85.98.39,2.03.61,3.27.98.44-4.19.83-7.97,1.23-11.85-4.63-1.78-9.07-3.24-13.23-5.25-1.29-.63-2.67-2.83-2.6-4.23.32-6.11,1.16-12.19,1.82-18.35,5.88-1.21,11.48-2.36,17.07-3.5.34-4.34.63-8.09.96-12.35-19.45,3.89-38.19,7.64-57.78,11.5M207.04,835.29c-3.29,2.81-6.57,5.63-9.82,8.41,2.77,4.67,4.83,8.13,7.08,11.92,17.96-19.18,35.43-37.85,52.92-56.53-1.19-2.08-2.4-3.72-3.11-5.54-1.63-4.17-4.04-4.94-8.46-3.74-13.94,3.8-28.04,7-42.07,10.47-9.07,2.25-18.13,4.57-27.58,6.96,2.29,3.86,4.23,7.11,6.25,10.51,4.58-1.24,8.89-2.37,13.18-3.58,2.31-.65,3.96-.53,5.26,2.05,2.32,4.59,5.29,8.86,7.53,13.48.62,1.27-.4,3.33-1.18,5.58M358.12,943.64c4.01-4.84,8.02-9.68,12.25-14.8-3.07-2.52-5.86-4.8-8.9-7.3-4.98,6.02-9.68,11.82-14.5,17.53-6.55,7.75-12.89,15.7-19.89,23.02-4.99,5.22-10.22,4.66-14.72-.39-3.16-3.55-3.63-8.31-.55-12.88,3.15-4.68,6.78-9.04,10.34-13.43,7.42-9.14,14.94-18.2,22.65-27.58-3.18-2.58-5.96-4.83-9.14-7.4-11.42,14.27-22.61,28.08-33.56,42.09-2,2.55-3.98,5.79-4.25,8.86-.42,4.75-.73,10.33,1.31,14.32,7.74,15.08,23.44,17.2,35.53,5.49,1.08-1.04,2.14-2.1,3.11-3.24,6.65-7.89,13.27-15.8,20.31-24.28M967.42,858.09c4.61,1.84,9.08,4.22,13.85,5.4,8.35,2.07,16.62,1.7,23.5-4.44,11.28-10.06,9.28-26.78-4.36-36.84-3.02,2.14-6.07,4.29-9.03,6.39,2.25,3.12,4.54,5.61,6.06,8.5,4.06,7.74-1.5,16.89-10.09,15.47-13.77-2.28-25.4-9.23-32.68-21.47-4.53-7.62,1.82-16.25,10.75-15.54,2.09.17,4.15.77,6.46,1.22.53-1.88,1.02-3.62,1.49-5.36.51-1.88.99-3.77,1.46-5.58-6.87-3.03-12.88-3.75-18.24-2.3-14.28,3.87-20.11,20.14-12.04,33.92,5.29,9.03,13.36,15.12,22.87,20.62M213.06,713.54c11.27-12.71,6.28-31.76-10.22-36.11-18.55-4.89-36.03-1.13-51.2,10.75-6.95,5.45-10.13,13.1-8.01,22.19,2.84,12.13,13.48,18.58,28.61,17.11.62-3.69,1.26-7.49,1.89-11.23-3.42-.45-6.23-.68-8.97-1.2-4.42-.84-7.7-3.25-8.79-7.77-1.1-4.51.53-8.59,4.14-11.02,11.29-7.61,23.76-10.96,37.32-8.08,4.37.93,7.78,4.33,7.71,8.73-.06,3.4-2.18,6.94-4.02,10.05-.98,1.65-3.31,2.49-5.25,3.86,2.03,3.4,3.96,6.63,6.21,10.39,3.64-2.59,6.86-4.87,10.58-7.67M464.65,1011.13c-4.33,6.41-8.67,12.82-13,19.23-.28-.1-.57-.2-.85-.3,1.77-17.94,3.54-35.87,5.32-53.91-4.05-1.43-7.74-2.74-11.72-4.15-2.26,25.98-4.46,51.29-6.65,76.46,2.59.97,4.72,1.52,6.61,2.53,3.7,1.99,5.8.84,8.03-2.57,5.56-8.49,11.59-16.66,17.4-24.99,7.77-11.14,15.52-22.3,23.46-33.71-2.51-.98-4.58-1.59-6.46-2.57-3.61-1.87-5.78-1.06-7.96,2.55-4.28,7.12-9.17,13.88-14.17,21.41M884.95,889.45c-4.26,4.59-8.52,9.19-13,14.02,16.45,17.32,33.34,35.1,50.02,52.66,3.06-2.91,5.65-5.37,8.33-7.92-7.07-7.49-14.01-14.85-20.71-21.95,5.47-5.79,10.66-11.28,16.28-17.23-3.15-2.61-6.19-5.14-9.45-7.84-5.09,4.75-10.52,9.82-16.28,15.2-3.99-4.28-7.77-8.32-11.65-12.47,6.73-6.4,12.97-12.33,19.45-18.49-3.25-3.06-6.22-5.87-9.35-8.82-4.4,4.17-8.75,8.28-13.63,12.85M773.14,991.77c.66-7.76,1.32-15.52,2-23.4-8.38,2-12.72,7.06-13.01,15.17-.1,2.66-.15,5.32-.31,7.98-.24,3.84-.56,7.68-.83,11.38-6.72-6.41-13.2-12.38-19.39-18.63-2.11-2.13-3.86-2.63-6.51-1.33-2.63,1.29-5.45,2.22-8.19,3.31.45-.32.9-.63,1.34-.95,8.53,9.29,16.85,18.78,25.68,27.78,4.14,4.22,7.7,8.4,9.54,14.19,2.28,7.16,5.3,14.09,8.11,21.39,3.95-1.52,7.25-2.79,10.68-4.1-2.39-6.34-4.2-12.23-6.79-17.77-3.56-7.63-4.55-15.42-3.3-23.66.52-3.44.62-6.95.99-11.36M717.95,1032.51c-2.34-9.29-4.67-18.59-7.05-28.04,5.47-1.44,10.53-2.78,15.85-4.18-1.1-4.42-2.08-8.34-3.08-12.35-14.55,3.62-28.54,7.09-42.94,10.67,1.08,4.29,2.08,8.23,3.12,12.39,5.52-1.32,10.59-2.53,15.89-3.8,4.98,19.97,9.87,39.57,14.85,59.53,3.87-.99,7.32-1.88,11.06-2.84-2.63-10.59-5.11-20.57-7.7-31.37M424.14,999.7c4.83-10.3,9.66-20.6,14.6-31.16-3.86-1.78-7.07-3.25-10.42-4.8-10.67,22.73-21.07,44.88-31.54,67.2,3.75,1.73,6.88,3.16,10.42,4.79,5.67-12,11.17-23.67,16.94-36.04M1018.08,744.27c11.45,3.09,22.9,6.19,34.66,9.37,1.04-4.18,1.89-7.61,2.77-11.15-24.2-6.51-47.67-12.83-71.5-19.24-1.06,3.85-2,7.29-3.05,11.09,12.35,3.31,24.34,6.51,37.12,9.93M662.65,1001.1c-.46,1.5-1.46,3.08-1.27,4.49,1.05,7.74,2.4,15.45,3.64,23.16,2.45,15.23,4.9,30.47,7.41,46.04,3.9-.66,7.44-1.26,11.3-1.92-3.93-24.58-7.8-48.76-11.7-73.17-3.3.49-5.91.88-9.37,1.39M647.22,215.84c-.58,1.31-1.99,2.99-1.6,3.85,1.74,3.8,4,7.36,6.58,11.9,7.86-10.92,15.36-21.34,22.88-31.79-3.07-3.45-5.65-6.35-7.93-8.92-6.65,8.39-13.02,16.43-19.93,24.95M1038.06,421.4c-1.4-1.58-2.8-3.15-4.04-4.55-5.91,5.49-11.48,10.65-17.19,15.96,2.85,3.2,5.75,6.47,8.99,10.11,5.72-5.92,11.1-11.48,16.78-17.35-1.38-1.25-2.72-2.46-4.54-4.16M671.44,152.97c2.69,3.55,5.38,7.1,8.41,11.09,3.15-2.96,6.11-5.75,9.36-8.81-3.71-4.72-7.24-9.2-10.88-13.83-3.61,2.6-6.67,4.8-9.99,7.19.97,1.38,1.81,2.58,3.09,4.36M671.48,172.01c-1.87-2.31-3.74-4.61-5.82-7.17-3.23,2.65-6.22,5.12-9.43,7.76,4.11,5.21,7.93,10.07,11.87,15.07,3.17-2.92,5.97-5.48,8.94-8.21-1.78-2.41-3.44-4.67-5.55-7.46M468.87,172.4c.83-2.28,1.66-4.57,2.67-7.33-5.91-2.82-11.46-5.46-17.04-8.12-1.89,3.95-3.49,7.3-5.06,10.58,5.97,2.98,11.67,5.83,17.59,8.79.57-1.18,1.06-2.2,1.85-3.93M458.96,198.41c3.2,1.66,6.39,3.31,9.95,5.15,1.51-3.9,2.91-7.52,4.46-11.54-5.94-2.61-11.45-5.02-17.02-7.47-1.62,3.92-2.99,7.25-4.51,10.95,2.21.9,4.32,1.76,7.13,2.91h-.01Z"/>
  <path class="st7" d="M420,618.99c-58.07.61-110.05,18.54-157.64,51.25-3.86-20.57-5.53-40.71-5.49-61,.11-62.55,15.3-121.21,47.28-174.96,50.84-85.44,124.97-140.07,221.5-163.95,22.3-5.52,45.09-8.14,68.13-8.76,89.48-2.4,168.75,25.06,236.82,82.85,63.26,53.71,102.29,122.17,116.99,203.93,3.37,18.73,3.83,37.99,5.28,57.04.18,2.39-1.21,5.56-2.93,7.34-44.2,45.4-97.49,74.32-159.55,86.93-27.37,5.56-55.06,6.76-82.93,4.72-51.63-3.78-98.66-20.74-142.67-47.72-32.41-19.87-68.1-31.4-105.94-35.57-12.7-1.4-25.56-1.42-38.84-2.08M516.66,373.08c-4.52,3.17-6.26,7.49-5.74,12.97.28,2.97.36,6.03,0,8.99-1.02,8.29,3.51,13.46,10.41,15.58,11.53,3.54,23.42,5.14,34.58-1.67.64,9-2.15,14.05-10.67,17.07-4.13,1.46-8.71,1.8-13.13,2.27-3.22.34-6.51.07-9.8.07v7.51c6.92,0,13.57.35,20.17-.08,9.94-.65,19.2-3.49,27.24-9.79,6.07-4.76,9.18-10.78,9.16-18.46-.02-6.5,0-13-.01-19.5,0-10.68-4.5-17.2-15.18-18.78-9.47-1.4-19.25-1.54-28.83-1.03-5.92.32-11.72,2.9-18.2,4.85M677.17,394.67c-3.16,2.71-6.09,5.77-9.55,8.02-4,2.6-4.22,5.86-3.12,10.41h44.73v22.41h22.81v-22.69h10.68v-8.2c-3.68-.19-7.07-.37-10.98-.57v-36.05c-6.36,0-12.2-.35-17.97.15-2.87.25-6.08,1.43-8.34,3.21-9.4,7.41-18.5,15.21-28.28,23.31M626.5,367.99c-7.13.35-14.34.14-21.37,1.2-7.93,1.19-12.43,6.45-13.08,13.85,2.67,0,5.32.18,7.94-.09,1.05-.1,2.51-.94,2.9-1.84,1.74-3.92,4.89-5.27,8.79-5.36,4.49-.11,8.99-.05,13.49-.09,4.78-.04,9.21.99,11.14,5.86,1.91,4.83.45,9.43-3.45,12.58-5.79,4.68-12,8.84-18.06,13.19-6.46,4.64-13.1,9.04-19.38,13.9-4.77,3.7-5.01,8.92-3.76,14.34h67.07v-9.44h-45.18c2.56-3.07,3.87-5.22,5.71-6.73,3.58-2.94,7.4-5.61,11.22-8.25,8.19-5.65,16.64-10.94,24.54-16.96,2.15-1.64,3.63-5.27,3.84-8.11.65-8.79-3.85-14.52-13.54-16.67-5.76-1.28-11.87-.99-18.82-1.4M470.11,415.5v20.1h20.52v-67.26c-9.82-1.79-17.81,3.1-26.3,5.61-6.16,1.82-6.34,2.35-4.36,9.22h10.14v32.34h0Z"/>
  <path class="st32" d="M866.74,710.81c29.46-11.59,56.49-26.75,82.46-46.48-.85,4.7-1.46,8.29-2.16,11.87-.73,3.76-1.21,7.6-2.35,11.23-5.53,17.75-11.13,35.48-17.04,53.1-.7,2.1-3.15,4.35-5.3,5.13-56.6,20.69-114.99,28.62-175.1,24.57-42.32-2.85-82.56-14.01-122.89-26.7-111.46-35.09-212.74-14.8-302.73,60.19-.88.73-1.78,1.44-3.63,2.95-7.79-13.5-15.45-26.66-22.96-39.9-2.21-3.9-3.73-8.19-6.01-12.04-2.4-4.07-1.8-6.79,1.74-10.09,36.33-33.92,78.47-57.01,127.07-67.55,63.59-13.79,124.55-5.91,182.92,23.17,36.72,18.29,75.8,28.51,116.7,31.92,51.27,4.27,100.89-2.8,149.27-21.36h0Z"/>
  <path class="st32" d="M633.63,767.27c20.88,5.03,39.81,14.01,59.1,22.14,32.67,13.76,66.84,20.88,102.29,22.08,33.42,1.13,66.01-3.44,97.88-13.43,1.53-.48,3.13-.77,5.61-.2-8.52,11.21-17.84,21.91-25.37,33.74-10.62,16.7-27.23,20.56-44.63,23.37-43.03,6.94-82.87-1.6-121.1-22.54-80.67-44.18-184.25-30.16-250.46,33.38-11.81,11.34-21.55,24.83-32.24,37.33-.52.61-1,1.25-1.71,2.13-21.12-12.88-40.34-27.86-58.97-45.58,8.77-9.46,16.98-19.29,26.18-28.07,39.4-37.61,86.11-60.85,139.97-69.23,34.62-5.38,69.02-3.64,103.46,4.88h0Z"/>
  <path class="st30" d="M816.76,873.91c6.11-1.28,11.79-2.51,17.52-3.76-22.25,29.9-109.2,71.28-172.37,82.09-68.98,11.8-140.05.04-189.85-22.25,10.24-16.6,22.52-31.52,37.69-43.61,63.52-50.65,132.58-58.91,206.62-25.78,31.05,13.89,63.3,18.63,96.96,13.72.99-.14,1.99-.24,3.41-.41h.02Z"/>
  <path class="st23" d="M209.7,401.38c9.8,4.19,19.27,8.19,29.3,12.43-5.45,10.69-10.76,21.11-16.39,32.16,10.43,4.44,20,8.51,30.04,12.78-1.84,4.38-3.61,8.61-5.51,13.14-9.96-4.38-19.63-8.63-30-13.19-4.02,11.17-7.88,21.89-11.9,33.03-14.01-6.03-27.51-11.85-41.29-17.78,4.6-10.57,9.15-21.02,13.95-32.03-5.78-2.43-11.22-4.72-17.19-7.22,1.82-4.33,3.58-8.53,5.56-13.23,5.84,2.58,11.38,5.02,17.21,7.59,4.74-11.17,9.33-22.01,14.07-33.17,4.01,1.8,7.92,3.56,12.16,5.5M201.82,418.27c-2.23,5.14-4.46,10.28-6.85,15.79,5.6,2.4,10.84,4.64,16.29,6.98,3.01-7.01,5.81-13.53,8.72-20.32-5.53-2.38-10.66-4.59-16.03-6.91-.73,1.45-1.31,2.59-2.14,4.46M183.39,460.85c-.76,1.92-1.52,3.83-2.35,5.94,5.53,2.37,10.63,4.55,16.09,6.89,2.95-6.83,5.67-13.12,8.57-19.83-5.68-2.46-10.86-4.69-16.22-7.01-2.09,4.86-3.91,9.1-6.09,14.01h0Z"/>
  <path class="st12" d="M282.41,300.6c-6.23-7.18-12.23-14.09-18.56-21.39.72-.52,1.42-.97,2.05-1.5,20.76-17.71,41.51-35.44,62.35-53.23,19.25,22.36,38.51,44.75,58.63,68.13-4.31,2.34-8.32,4.48-12.29,6.7-.86.48-1.56,1.24-2.32,1.89-12.87,11.08-25.84,22.06-38.56,33.31-4.11,3.63-7.57,7.99-11.59,12.3-13.51-15.72-26.5-30.82-39.72-46.2M312.19,252.24s.14,0-.47.11c-.2.35-.4.69-.92,1.6-9.96,8.6-19.93,17.2-30.04,25.93,3.61,4.56,6.95,8.78,10.47,13.47.28.2.55.39.76.62,0,0,.05-.06.26.42.29.17.58.35.78.57,0,0,.05-.09,0,.65,1.32,1.47,2.63,2.93,4.23,4.84.32.13.63.26.84.4,0,0,.03-.11.12.42.24.25.49.51.98,1.18.22.26.49.42.78.53,0,0,.04-.04.21.41.18.28.42.48.79.59v.75c.66.76,1.32,1.52,2.21,2.72.2.27.46.46,1,1.01.2.27.45.46,1.02,1.01.23.26.52.42,1.32.67.27.23.42.51.46,1.6.76.67,1.52,1.33,2.18,2.07,0,0,0-.12.1.45.31.2.62.39.82.62,0,0,.02-.12.15.42.29.21.58.42.81.62,0,0,.05-.03.04.68,2.63,2.79,5.26,5.59,7.89,8.4,0,0,.02,0,.07.64.45.36.89.73,1.18,1.19,0,0-.02-.18.14.46.39.19.77.38,1.66.91,1.34-.54,2.92-.8,3.97-1.68,10.92-9.15,21.76-18.41,33.19-27.77.24-.3.47-.6.72-.81,0,0-.09-.02.41-.19.2-.28.4-.57.78-1.32.29-.15.58-.3,1.51-.51.36-.45.72-.89,1.13-1.16,0,0-.13-.14.6.02.48-.68.97-1.35,1.5-1.93,0,0-.11,0,.43-.13.21-.29.42-.58.64-.79,0,0-.08-.01.42-.2.2-.29.4-.58.6-1.46,0-.39,0-.78-.16-1.64-.17-.3-.43-.51-.81-.62,0,0,0-.05-.06-.68-.44-.36-.88-.71-1.36-1.06,0,0-.04.02.17-.67-3.27-3.51-6.53-7.02-9.77-10.56,0,0-.01.04-.18-.42-.18-.29-.44-.49-.8-.6,0,0,0-.03-.06-.67-.45-.34-.9-.67-1.24-1.12,0,0-.03.16-.05-.44-.34-.16-.68-.32-.9-.57,0,0,0,.15-.08-.46-.33-.21-.66-.43-1.57-.94-3.74-4.48-7.48-8.95-11.36-14.02-.32-.23-.64-.46-.89-.66,0,0-.07.03,0-.68-2.63-3.5-5.17-7.07-7.94-10.46-.68-.84-2.06-1.11-3.11-1.69,0,0,.04-.03-.13-.61-.34-.19-.69-.38-1.45-.44-.3.04-.58,0-1.44.02-.23.32-.46.63-.84,1.38-.2.26-.46.4-1.54.38-1.4,1.4-2.8,2.8-4.25,4.11,0,0,.11,0-.43.14-.2.3-.4.6-.62.8,0,0,.1.02-.41.17-.21.28-.41.56-.65.77,0,0,.08.04-.39.21-.3.18-.5.44-.61.79,0,0-.02,0-.66.06-.32.46-.64.92-1.2,1.33,0,0,.25,0-.35-.05-.17.33-.35.66-.61.88h0Z"/>
  <path class="st22" d="M899.43,268.41c-2.64,2.65.05,3.33,1.23,4.31,8.85,7.31,17.75,14.55,27.03,22.13-2.54,3.12-5.01,6.16-7.66,9.42-9.99-8.26-19.7-16.29-29.78-24.62-7.05,9.35-8.27,19.78-8.52,30.75-.26,11.51,3.74,21.11,11.33,29.69-4.54,2.5-8.64,4.76-12.95,7.13-11.17-15.55-12.98-32.91-9.73-52.03-17.85,9.26-34.94,5.3-52.18.51.67-4.88,1.29-9.44,1.99-14.54,10.21,3.78,20.18,8.87,31.46,6.64,11.17-2.21,20.42-7.68,27.59-17.41-9.52-7.89-18.95-15.7-28.7-23.78,2.44-2.99,4.8-5.88,7.36-9.01,9.89,8.15,19.46,16.04,29.34,24.18,5.06-6.21,9.76-11.98,14.74-18.1,3.5,3.23,6.86,6.32,10.48,9.66-4.37,5.06-8.59,9.94-13.03,15.08h0Z"/>
  <path class="st0" d="M698.14,223.01c-.04-.22-.08-.43-.22-1.34-1.27-.93-2.44-1.17-3.61-1.41,0,0-.12.05-.4-.3-5.5-1.73-10.68-3.36-15.98-4.41-3.34-.66-4.53-2.18-3.89-5.37v-6.63c9.4,2.42,18.12,4.67,27.1,6.98.99-3.85,1.8-7.01,2.75-10.69-7.42-1.88-14.59-3.7-22.19-5.63.94-3.84,1.79-7.33,2.72-11.17,7.48,1.94,14.66,3.8,22.2,5.75.94-3.51,1.79-6.68,2.83-10.55-8.83-2.27-17.42-4.47-26.53-6.81.88-3.57,1.74-7.02,2.68-10.86,5.62,1.42,10.84,2.74,17.05,4.31-1.17-4.92-2.14-9.03-3.23-13.62,3.68-.73,7.34-1.46,11.37-2.26,1.36,4.63,2.91,9.01,3.82,13.52.26,1.29-1.36,2.96-2.33,4.86,3.45.89,7.7,1.98,11.14,2.86.43-7.23,7.48-9.57,9.59-15.49,3.56,2.78,6.64,5.2,10.24,8-2.86,3.29-5.62,6.47-8.9,10.26,5.96,1.53,11.2,2.88,17.02,4.37-.89,3.65-1.74,7.11-2.72,11.14-8.99-2.3-17.76-4.55-27.02-6.92-.94,3.51-1.78,6.64-2.76,10.31,7.12,1.8,13.99,3.54,21.42,5.42-.88,3.58-1.73,7.04-2.73,11.09-7.15-1.81-14.01-3.55-21.39-5.43-.91,3.4-1.79,6.7-2.83,10.62,9.28,2.38,18.22,4.67,27.77,7.12-.87,3.67-1.72,7.27-2.66,11.24-9.47-2.43-18.57-4.76-27.86-7.14-.81,2.78-1.5,5.15-2.67,8.07-1.55,4.15-2.63,7.76-3.88,11.96-3.3-2.58-8.84.49-10.22-5.4,0,0-.09-.27.31-.59,1.6-5.5,2.81-10.7,4.01-15.89v.03Z"/>
  <path class="st6" d="M486.03,198.21c.03-.21.06-.42.4-1.26.77-5.98,1.03-11.28-2.43-15.93,0,0-.03-.03-.17-.31-.7-.42-1.27-.56-2.08-.9.88-1.09,2.01-1.98,3.59-2.84,3.1-.11,5.85.17,8.37-.47,11.85-2.99,23.62-6.27,35.45-9.31,1.66-.42,3.52-.06,5.4-.06.88,5.54,1.71,10.56,2.45,15.59.46,3.15,2.27,4.2,5.21,3.64,1.41-.27,2.8-.71,4.61-1.18.71,2.6,1.33,4.91,1.92,7.08-2.5,1.41-4.61,2.61-6.73,3.81-.06.43-.12.86-.46,1.92-.88,8.15-.12,9.13,6.78,11.15,1.08.31,2.51,1.98,2.46,2.96-.07,1.51-1.17,4.17-2.01,4.24-4.61.36-4.82,3.66-5.39,6.9-.45,2.58-.95,5.15-1.43,7.73-.16.29-.32.58-.96,1.04-.66.45-.83.73-1.01,1.01,0,0-.01-.02-.36-.02-1.11.68-1.86,1.37-2.62,2.05,0,0-.02-.06-.41-.06-4.82.68-9.26,1.37-13.69,2.05,0,0,.08-.02.06-.31-.37-.76-.73-1.23-1.08-1.7,0,0,.09-.02.06-.35-.57-1.93-1.11-3.52-1.77-5.47,1.87-.1,3.17-.09,4.44-.25,5.02-.62,8.45-3.5,8.36-6.94,0,0,.01-.02-.24-.31-2.68-.16-5.18-.37-7.51.17-11.45,2.65-22.85,5.5-34.87,8.43-.13-2.52-.1-4.94-.4-7.32-.56-4.33-1.33-8.64-2.01-12.95,0,0,.05-.03,0-.37-2.92-.59-5.79-.85-8.67-1.11-.3-2.69-.54-4.9-.69-6.24,2.87-1.58,5.16-2.84,7.45-4.1M505.28,182.9c-2.85.62-5.69,1.23-8.74,1.89.44,3.8.81,7,1.25,10.75,4.04-.99,7.43-1.82,11.57-2.83-2.84-1.96-4.97-3.44-7.12-4.93,1.4-1.7,2.66-3.22,3.75-4.77l.22-.09s-.13.2-.93-.03M499.06,208.81c.29,3.11.57,6.22.91,9.81,5.26-1.27,10.06-2.43,15.89-3.83-3.75-2.68-6.5-4.65-9.35-6.69,1.23-1.42,2.18-2.52,3.13-3.61-.17-.35-.35-.7-.52-1.05-3.36,1.51-6.72,3.02-10.06,5.38M524.52,207.7c-.35,1.69-.71,3.38-1.1,5.25,2.62-.63,5.73-1.38,9.11-2.19-.71-4.17-1.33-7.86-2.02-11.93-4.71,1.18-8.81,2.21-13.68,3.44,2.85,1.98,5.01,3.49,7.69,5.44M515.11,180.22c-.92.33-1.83.67-2.76,1,1.6,3.74,8.37,2.94,7.14,9.08,2.98-.71,5.66-1.35,8.77-2.09-.78-3.67-1.48-6.94-2.22-10.43-3.79.86-6.99,1.58-10.94,2.44h0Z"/>
  <path class="st0" d="M949.66,459.26c-1.24-2.91-2.3-5.49-3.32-7.98,3.3-2.8,6.3-5.36,9.82-8.35,1.01,2.66,2.01,5.16,2.9,7.69,1.58,4.5,4.76,4.47,8.45,3.07,3.74-1.42,4.33-3.63,2.74-7.41-4.89-11.61-9.39-23.38-14.27-35.66,3.49-1.39,6.95-2.77,11.02-4.4,2.12,5.57,4.16,10.93,6.21,16.28.54,1.4,1.43,2.72,1.66,4.16,1.1,6.83,5.9,9.7,12.83,11.74-2.47-6.01-4.7-11.45-7.15-17.42,3.41-1.37,6.71-2.7,10.67-4.29,1.19,3.27,2.25,6.33,3.42,9.35,4.52,11.61,8.85,23.29,13.73,34.75,1.65,3.87.02,6.31-2.33,8.21-1.15.93-3.99.51-5.73-.16-3.37-1.3-6.5-3.2-10.96-5.49,4.07,10.15,7.72,19.25,11.52,28.72-3.64,1.45-7.13,2.84-11,4.38-4.41-11.3-8.66-22.21-12.5-32.07-6.77,1.27-13.1,3.47-19.31,3.17-2.86-.14-5.48-5.16-8.4-8.29M986.75,448.86c1.81.97,3.61,1.93,6.49,3.47-1.69-4.17-2.88-7.13-4.49-11.11-1.03,3.09-1.68,5.06-2.01,7.63h.01Z"/>
  <path class="st36" d="M546.85,1060.68c1.96-19.62,3.89-38.79,5.87-58.51,10.12,1.13,19.87,1.86,29.49,3.41,8.85,1.43,13.1,6.79,13.8,15.79,1.04,13.4-3.18,20.53-14.23,25.29,4.57,11.26,9.12,22.49,14.01,34.54-4.97-.48-8.79-.59-12.5-1.34-1.19-.24-2.44-1.97-2.99-3.3-3.07-7.53-5.93-15.14-8.87-22.72-1.98-5.13-5.58-7.59-11.68-6.75-1.02,9.81-2.04,19.66-3.13,30.13-3.77-.36-7.33-.71-11.38-1.1.54-5.18,1.05-10.08,1.59-15.43M568.81,1016.83c-1.78-.21-3.56-.42-5.92-.7-.65,6.27-1.26,12.25-1.9,18.44,4.85.45,9.13,1.03,13.42,1.21,6.27.27,9.01-2.16,9.65-8.1.68-6.34-1.41-9.05-7.94-10.1-2.13-.34-4.29-.47-7.3-.74h-.01Z"/>
  <path class="st36" d="M1028.87,673.21c13.91,2.83,27.41,5.58,41.34,8.42-.68,3.36-.98,6.54-2.08,9.42-.48,1.26-2.49,2.36-4,2.73-14.37,3.51-28.79,6.84-43.19,10.22-.55.13-1.09.31-1.69,1.47,14.53,2.95,29.06,5.9,44.15,8.97-.64,3.59-1.24,6.92-1.89,10.56-24.36-4.93-48.27-9.76-72.73-14.7.66-3.28.85-6.48,2.04-9.25.58-1.35,2.91-2.33,4.63-2.75,14.54-3.51,29.11-6.84,43.68-10.23.57-.13,1.13-.31,1.78-1.39-14.87-3.03-29.74-6.06-45.29-9.23.57-3.45,1.12-6.76,1.75-10.51,10.62,2.12,20.84,4.16,31.49,6.28h0Z"/>
  <path class="st36" d="M255.61,877.73c11.87-8.82,23.75-17.65,35.89-26.67,2.17,2.82,4.25,5.53,6.51,8.48-19.96,15.01-39.61,29.79-59.24,44.55-5-5.64-5.8-11.6-2.41-17.89,6.43-11.9,12.86-23.8,18.66-36.26-12.02,9.04-24.05,18.08-36.48,27.43-2.21-2.81-4.3-5.47-6.66-8.48,19.95-15.02,39.56-29.78,59.06-44.47.66.5.96.66,1.17.9,4.13,4.85,4.69,10.05,1.69,15.62-6.31,11.69-12.64,23.38-19.28,35.6-.33,1.08-.34,1.62-.35,2.17.48-.32.96-.65,1.44-.97h0Z"/>
  <path class="st21" d="M379.13,1019.25c-.63.8-1.08,1.7-1.53,1.7-4.74.04-9.64-6.01-9-10.77,1.97-14.82,3.85-29.64,4.88-44.86-8,12.66-16.01,25.32-24.23,38.34-3.12-1.92-5.89-3.62-9.11-5.6,13.25-21.1,26.28-41.85,39.21-62.45.57.07.75.05.89.12,8.73,4.2,8.9,4.23,7.74,13.58-1.71,13.79-3.69,27.54-4.99,41.72,9.25-11.9,16.47-25.23,25.19-37.95,2.93,1.81,5.69,3.51,8.99,5.55-12.67,20.19-25.26,40.24-38.04,60.62Z"/>
  <path class="st10" d="M165.44,612.28c8.68.19,17.11-.5,25.15.95,12.03,2.17,18.99,10.47,20.21,21.63,1.14,10.45-3.96,19.61-14.73,24.86-13.77,6.71-28.31,8.21-43.14,4.18-11.36-3.09-17.69-10.65-18.64-21.97-.92-11.02,4.26-19.05,13.85-23.82,5.27-2.62,11.22-3.88,17.3-5.83M155.19,651.61c11.95,4.3,23.57,2.94,34.82-2.35,5.06-2.38,8.06-6.58,7.73-12.33-.35-6.11-3.78-10.25-9.66-11.95-11.54-3.33-22.86-2.29-33.3,3.51-10.03,5.57-9.91,16.27.41,23.11h0Z"/>
  <path class="st4" d="M847.4,922.14c9.41-3.84,17.76-1.85,25.26,3.64,12.07,8.82,20.14,20.59,23.75,35.15,2.75,11.07-.65,20.43-9.12,26.49-8.71,6.24-18.95,6.64-28.42.27-13.37-9-22-21.65-25.55-37.32-2.8-12.34,1.94-21.24,14.08-28.23M858.4,933.03c-8.2.76-13.44,5.94-13.35,13.23.12,10.58,12.3,27.95,22.27,31.76,8.74,3.34,17.39-2.35,17.49-11.66.12-11.82-15.21-32.82-26.41-33.33h0Z"/>
  <path class="st40" d="M999.95,754.1c15.36,6.41,30.36,12.71,45.82,19.2-1.36,3.41-2.67,6.7-4.22,10.59-9.96-4.1-19.69-8.11-29.87-12.3-2.78,6.64-5.44,12.99-8.27,19.74,10.04,4.23,19.74,8.32,29.71,12.52-1.49,3.57-2.81,6.74-4.41,10.59-22.88-9.55-45.58-19.03-68.47-28.59,1.51-3.7,2.82-6.89,4.33-10.59,9.01,3.7,17.83,7.33,26.96,11.09,2.78-6.72,5.43-13.12,8.19-19.79-9.09-3.83-17.77-7.48-26.77-11.27,1.51-3.59,2.9-6.9,4.44-10.55,7.58,3.15,14.9,6.19,22.58,9.35h-.02Z"/>
  <path class="st36" d="M530.94,1036.97c-.38,1.5-.69,2.6-1.13,4.13-8.83-2.01-17.52-3.98-26.91-6.12-1.43,6.22-2.85,12.41-4.39,19.1,10.1,2.35,19.75,4.59,29.98,6.97-.9,4.11-1.75,8.04-2.71,12.45-13.83-3.13-27.22-6.16-41.38-9.36,5.48-24.13,10.9-48,16.44-72.43,13.51,3.07,26.71,6.07,40.36,9.17-.91,4.15-1.74,7.97-2.73,12.46-9.72-2.16-19.2-4.27-29.19-6.49-1.19,5.06-2.34,9.98-3.63,15.48,9.14,2.13,17.93,4.17,27.13,6.32-.64,2.82-1.21,5.37-1.84,8.32h0Z"/>
  <path class="st17" d="M168.75,787.31c-4.42-12.02-8.7-23.67-13.13-35.73,23.37-8.57,46.36-17,69.76-25.58,4.77,13.03,9.42,25.72,14.23,38.87-4.02,1.53-7.68,2.92-11.94,4.53-3.47-9.35-6.84-18.43-10.4-28.04-4.96,1.78-9.72,3.48-14.98,5.37,3.16,8.83,6.2,17.33,9.37,26.19-4.09,1.53-7.75,2.89-11.88,4.44-3.22-8.67-6.32-17.01-9.67-26.03-6.12,2.19-12.07,4.33-18.42,6.61,3.57,9.84,6.99,19.26,10.53,29.05-4,1.5-7.67,2.88-11.66,4.38-.62-1.37-1.15-2.53-1.81-4.06Z"/>
  <path class="st25" d="M1004.21,407.71c.73,1.72,1.33,3.08,2.48,5.72,4.73-6.43,8.98-12.2,13.42-18.24,2.95,2.08,6.28,4.43,10.34,7.3-4.35,6.27-8.73,12.57-13.23,19.06-3.24-2.28-5.91-4.16-8.58-6.03l-1.01.68c4.8,12.2,9.6,24.4,14.83,37.69.73-3.13,1.15-4.98,1.5-6.48,8.5.74,16.71,1.46,25.37,2.22.22,3.97.46,8.39.76,13.81-8.2-.89-16-1.74-24.78-2.69,2.33,5.86,4.48,11.27,6.82,17.14-7.19,2.87-14.36,5.73-22.03,8.79-1.56-3.96-3.05-7.76-4.71-11.97,3.86-1.51,7.33-2.86,11.32-4.42-7.75-19.65-15.35-38.91-23.07-58.5-3.66,1.52-6.99,2.9-10.8,4.48-1.61-3.96-3.15-7.75-4.84-11.92,7.18-2.84,14.23-5.62,21.77-8.6,1.45,3.92,2.88,7.76,4.44,11.96h0Z"/>
  <path class="st18" d="M633.5,1048.31c-3.11-.85-5.87-1.47-8.56-2.3-12.42-3.85-18.76-15.21-15.56-27.8,2.48-9.76,9.42-14.51,21.03-14.38,10.23.11,17.12,5.75,19.41,15.93.33,1.45.42,2.96.7,5.02-3.73.5-7.41.99-10.98,1.47-3.37-9.22-8.52-12.31-15.18-8.85-1.98,1.03-4.1,3.81-4.19,5.88-.09,2.08,1.76,5.22,3.64,6.22,3.59,1.91,7.8,2.7,11.79,3.82,15.75,4.4,22.94,19.13,16.86,34.46-2.88,7.25-8.39,11.07-15.81,12.08-8.21,1.11-16.42.69-21.43-7.12-3.06-4.76-4.81-10.35-7.41-16.13,4.59-1.01,7.95-1.75,11.58-2.55.92,2.35,1.64,4.71,2.72,6.88,2.89,5.83,8.83,8.02,14.7,5.5,4.15-1.77,6.05-5.09,5.98-9.49-.08-5.79-4.51-7.18-9.29-8.65h0Z"/>
  <path class="st10" d="M1018.79,622.92c19.17-3.8,37.91-7.55,57.36-11.45-.33,4.27-.62,8.01-.96,12.35-5.6,1.15-11.19,2.3-17.07,3.5-.66,6.16-1.5,12.24-1.82,18.35-.07,1.41,1.3,3.61,2.6,4.23,4.16,2.02,8.6,3.47,13.23,5.25-.4,3.89-.8,7.66-1.23,11.85-1.25-.37-2.29-.59-3.27-.98-21.58-8.64-43.12-17.37-64.76-25.85-3.11-1.22-3.89-2.65-3.42-5.83,1.19-7.9,1.04-7.91,9.16-9.43,3.27-.61,6.52-1.3,10.2-2M1043.75,642.74c.33-4.22.67-8.45,1.04-13.15-9.04,1.61-17.42,3.1-25.8,4.59-.07.35-.14.7-.21,1.06,8.2,2.74,16.4,5.49,24.97,7.5Z"/>
  <path class="st18" d="M207.29,835.02c.52-1.97,1.54-4.03.92-5.31-2.24-4.63-5.21-8.89-7.53-13.48-1.3-2.57-2.95-2.7-5.26-2.05-4.29,1.2-8.6,2.34-13.18,3.58-2.02-3.39-3.95-6.65-6.25-10.51,9.45-2.39,18.5-4.72,27.58-6.96,14.03-3.48,28.13-6.68,42.07-10.47,4.42-1.2,6.83-.43,8.46,3.74.71,1.83,1.92,3.46,3.11,5.54-17.49,18.68-34.96,37.35-52.92,56.53-2.25-3.79-4.31-7.25-7.08-11.92,3.25-2.78,6.53-5.59,10.08-8.68M235.05,803.83c-7.65,1.99-15.3,3.98-23.31,6.06,2.68,4.52,5.01,8.44,6.74,11.35,6.16-5.65,12.15-11.14,18.53-16.97.13-.31.25-.63.38-.94-.51.17-1.02.33-2.33.5h-.01Z"/>
  <path class="st27" d="M357.91,943.92c-6.84,8.19-13.46,16.1-20.11,23.99-.96,1.14-2.03,2.2-3.11,3.24-12.09,11.71-27.79,9.59-35.53-5.49-2.05-3.99-1.74-9.57-1.31-14.32.27-3.07,2.25-6.31,4.25-8.86,10.95-14.01,22.14-27.82,33.56-42.09,3.17,2.57,5.95,4.82,9.14,7.4-7.71,9.38-15.23,18.44-22.65,27.58-3.56,4.39-7.2,8.75-10.34,13.43-3.08,4.58-2.6,9.34.55,12.88,4.5,5.05,9.73,5.61,14.72.39,7-7.32,13.34-15.28,19.89-23.02,4.82-5.7,9.53-11.5,14.5-17.53,3.04,2.5,5.83,4.78,8.9,7.3-4.24,5.12-8.24,9.96-12.46,15.09h0Z"/>
  <path class="st27" d="M967.08,857.95c-9.17-5.36-17.24-11.46-22.53-20.49-8.08-13.79-2.24-30.05,12.04-33.92,5.35-1.45,11.37-.73,18.24,2.3-.47,1.82-.96,3.7-1.46,5.58-.47,1.74-.97,3.47-1.49,5.36-2.31-.45-4.37-1.05-6.46-1.22-8.92-.71-15.28,7.93-10.75,15.54,7.28,12.24,18.92,19.19,32.68,21.47,8.6,1.43,14.16-7.73,10.09-15.47-1.52-2.9-3.81-5.39-6.06-8.5,2.96-2.1,6.01-4.25,9.03-6.39,13.65,10.06,15.64,26.79,4.36,36.84-6.88,6.13-15.15,6.51-23.5,4.44-4.77-1.18-9.25-3.56-14.2-5.54h.01Z"/>
  <path class="st36" d="M212.81,713.8c-3.47,2.54-6.69,4.83-10.33,7.41-2.25-3.76-4.18-6.99-6.21-10.39,1.94-1.37,4.28-2.21,5.25-3.86,1.84-3.1,3.96-6.65,4.02-10.05.07-4.4-3.34-7.81-7.71-8.73-13.57-2.88-26.03.47-37.32,8.08-3.61,2.43-5.24,6.51-4.14,11.02,1.1,4.52,4.37,6.93,8.79,7.77,2.75.52,5.55.75,8.97,1.2-.63,3.75-1.27,7.55-1.89,11.23-15.13,1.47-25.77-4.97-28.61-17.11-2.13-9.09,1.06-16.74,8.01-22.19,15.16-11.89,32.65-15.64,51.2-10.75,16.5,4.35,21.49,23.4,9.97,36.37h0Z"/>
  <path class="st24" d="M464.83,1010.82c4.82-7.22,9.7-13.98,13.99-21.1,2.18-3.62,4.34-4.42,7.96-2.55,1.88.97,3.96,1.59,6.46,2.57-7.94,11.41-15.69,22.57-23.46,33.71-5.81,8.32-11.84,16.5-17.4,24.99-2.23,3.41-4.33,4.56-8.03,2.57-1.88-1.01-4.01-1.56-6.61-2.53,2.19-25.17,4.39-50.48,6.65-76.46,3.98,1.41,7.66,2.71,11.72,4.15-1.78,18.04-3.55,35.97-5.32,53.91.28.1.57.2.85.3,4.33-6.41,8.67-12.82,13.19-19.54v-.02Z"/>
  <path class="st17" d="M885.22,889.22c4.62-4.34,8.96-8.45,13.36-12.62,3.13,2.95,6.1,5.76,9.35,8.82-6.48,6.16-12.72,12.09-19.45,18.49,3.88,4.15,7.66,8.19,11.65,12.47,5.76-5.38,11.19-10.45,16.28-15.2,3.26,2.71,6.3,5.23,9.45,7.84-5.62,5.95-10.81,11.44-16.28,17.23,6.7,7.11,13.64,14.46,20.71,21.95-2.69,2.55-5.27,5.01-8.33,7.92-16.68-17.55-33.57-35.34-50.02-52.66,4.48-4.84,8.74-9.43,13.27-14.25h.01Z"/>
  <path class="st24" d="M773.1,992.24c-.33,3.94-.43,7.45-.95,10.89-1.25,8.24-.26,16.03,3.3,23.66,2.59,5.54,4.41,11.44,6.79,17.77-3.43,1.32-6.73,2.59-10.68,4.1-2.81-7.3-5.83-14.23-8.11-21.39-1.84-5.79-5.41-9.96-9.54-14.19-8.82-9-17.15-18.49-25.68-27.78-.45.32-.9.63-1.34.95,2.74-1.09,5.55-2.01,8.19-3.31,2.65-1.3,4.41-.8,6.51,1.33,6.19,6.25,12.67,12.21,19.39,18.63.27-3.69.6-7.53.83-11.38.16-2.66.21-5.32.31-7.98.29-8.11,4.63-13.17,13.01-15.17-.67,7.88-1.33,15.64-2.03,23.87h0Z"/>
  <path class="st36" d="M718.01,1032.92c2.54,10.39,5.01,20.37,7.65,30.96-3.74.96-7.19,1.85-11.06,2.84-4.98-19.96-9.87-39.56-14.85-59.53-5.3,1.27-10.37,2.48-15.89,3.8-1.05-4.16-2.04-8.09-3.12-12.39,14.41-3.58,28.39-7.06,42.94-10.67,1,4.01,1.98,7.93,3.08,12.35-5.32,1.4-10.38,2.74-15.85,4.18,2.38,9.45,4.71,18.75,7.11,28.45h-.01Z"/>
  <path class="st40" d="M424,1000.05c-5.64,12.02-11.14,23.68-16.81,35.69-3.54-1.63-6.66-3.07-10.42-4.79,10.48-22.32,20.87-44.47,31.54-67.2,3.35,1.54,6.56,3.02,10.42,4.8-4.95,10.56-9.78,20.86-14.74,31.51h0Z"/>
  <path class="st40" d="M1017.68,744.17c-12.38-3.31-24.37-6.52-36.72-9.82,1.04-3.8,1.99-7.25,3.05-11.09,23.83,6.41,47.3,12.73,71.5,19.24-.88,3.54-1.73,6.97-2.77,11.15-11.76-3.18-23.21-6.27-35.05-9.47h-.01Z"/>
  <path class="st26" d="M663.08,1001.04c3.04-.45,5.65-.84,8.95-1.33,3.9,24.41,7.77,48.59,11.7,73.17-3.87.66-7.4,1.26-11.3,1.92-2.51-15.57-4.96-30.81-7.41-46.04-1.24-7.72-2.59-15.42-3.64-23.16-.19-1.41.82-2.99,1.7-4.55h0Z"/>
  <path class="st38" d="M484.89,176.93c-1.13.89-2.25,1.78-3.08,3.27.35.86.41,1.12.46,1.38,0,0,0,.25-.34.48-.39.58-.44.93-.48,1.29,0,0-.17,0-.5-.06-3.23-.12-6.14-.17-9.04-.23,0,0,.07-.06.04-.4-.35-1.8-.67-3.27-.99-4.74,0,0,.05.06.37,0,.77-1.03,1.21-2.01,1.65-2.99,0,0,.03.04.37,0,3.08-7.59,5.82-15.12,8.63-22.85,1.09.26,2.18.59,3.3.77,1.28.2,2.59.26,3.86.37-.03,5.84,2.65,7.24,8.93,5.23,4.21-1.34,8.53-2.37,12.83-3.46,6.93-1.76,13.98-3.16,20.78-5.32,3.08-.98,4.05.3,4.8,2.46.69,2,1.56,4.21-1.87,4.95-6.03,1.3-12.01,2.81-18,4.26-7.77,1.88-15.49,4.06-23.33,5.59-6.98,1.36-9.54,3.75-8.28,9.04,0,0,.02.02-.02.25-.04.24-.09.7-.09.7v.02Z"/>
  <path class="st5" d="M647.48,215.59c6.64-8.28,13.01-16.32,19.66-24.71,2.28,2.56,4.87,5.47,7.93,8.92-7.52,10.45-15.02,20.87-22.88,31.79-2.58-4.54-4.84-8.1-6.58-11.9-.39-.86,1.02-2.55,1.87-4.09h0Z"/>
  <path class="st5" d="M1038.29,421.65c1.58,1.46,2.91,2.67,4.3,3.91-5.68,5.87-11.05,11.43-16.78,17.35-3.23-3.64-6.14-6.91-8.99-10.11,5.71-5.3,11.28-10.47,17.19-15.96,1.24,1.4,2.64,2.97,4.27,4.8h.01Z"/>
  <path class="st2" d="M485.09,175.63c-1.35-4.94,1.21-7.32,8.19-8.68,7.84-1.53,15.55-3.71,23.33-5.59,5.99-1.45,11.97-2.96,18-4.26,3.43-.74,2.57-2.96,1.87-4.95-.75-2.16-1.72-3.44-4.8-2.46-6.8,2.16-13.85,3.56-20.78,5.32-4.29,1.09-8.61,2.12-12.83,3.46-6.28,2-8.96.61-8.93-5.23-1.27-.12-2.58-.18-3.86-.37-1.12-.17-2.21-.51-3.3-.77-2.81,7.73-5.56,15.27-8.66,22.84,1.97-8.03,4.3-16.1,6.74-24.56,3.54.3,7.59.65,11.8,1.01-.37,2.24-.68,4.16-1.14,6.97,15.54-3.79,30.56-7.44,45.89-11.18.86,3.55,1.68,6.88,2.65,10.85-7.25,1.7-14.27,3.33-21.29,4.99-8.72,2.06-17.4,4.31-26.16,6.16-3.65.77-6.08,2.26-6.73,6.46h0Z"/>
  <path class="st37" d="M671.22,152.68c-1.06-1.49-1.9-2.69-2.87-4.07,3.32-2.38,6.38-4.59,9.99-7.19,3.64,4.63,7.16,9.11,10.88,13.83-3.25,3.06-6.21,5.85-9.36,8.81-3.03-4-5.72-7.55-8.64-11.39h0Z"/>
  <path class="st37" d="M671.71,172.28c1.89,2.53,3.55,4.78,5.32,7.19-2.97,2.72-5.76,5.29-8.94,8.21-3.94-5-7.76-9.86-11.87-15.07,3.21-2.64,6.21-5.11,9.43-7.76,2.08,2.56,3.95,4.86,6.05,7.44h.01Z"/>
  <path class="st37" d="M468.72,172.76c-.64,1.37-1.13,2.38-1.69,3.57-5.92-2.96-11.62-5.81-17.59-8.79,1.57-3.28,3.17-6.63,5.06-10.58,5.58,2.66,11.13,5.3,17.04,8.12-1,2.76-1.83,5.05-2.82,7.69h0Z"/>
  <path class="st37" d="M458.6,198.27c-2.46-1-4.57-1.86-6.78-2.77,1.52-3.69,2.9-7.03,4.51-10.95,5.57,2.45,11.08,4.86,17.02,7.47-1.56,4.02-2.95,7.64-4.46,11.54-3.55-1.84-6.75-3.5-10.3-5.3h0Z"/>
  <path class="st2" d="M485.34,176.97c-.46-.03-.41-.49-.37-.72,12.99-3.13,25.94-6,38.88-8.95,3.69-.84,7.34-1.9,11.41-2.96,1.4,7.08,2.74,13.84,4.14,20.9,2.91-.66,5.46-1.23,8.53-1.92.87,3.65,1.69,7.11,2.62,11.01-2.91.63-5.31,1.16-8.12,1.71,1.71-1.17,3.82-2.37,6.32-3.78-.59-2.18-1.21-4.48-1.92-7.08-1.81.47-3.19.91-4.61,1.18-2.94.57-4.76-.49-5.21-3.64-.73-5.03-1.57-10.05-2.45-15.59-1.89,0-3.75-.37-5.4.06-11.84,3.04-23.61,6.32-35.45,9.31-2.52.63-5.27.36-8.37.47h0Z"/>
  <path class="st2" d="M485.67,198.31c-1.92,1.16-4.21,2.42-7.08,4,.15,1.34.39,3.55.69,6.24,2.87.26,5.74.52,8.64,1.13-2.55.67-5.13.98-6.49,1.15-1.8,13.11-3.5,25.45-5.31,38.6-2-1.17-3.07-1.8-4.23-2.81-.1-.39.13-.64.44-.5,1.12-.42,2.52-.88,2.64-1.57,1.45-8.36,2.67-16.76,4.06-25.14.63-3.83-.58-6.59-4.09-8.32.04-.06.12-.17.12-.17.93.09,1.85.19,3.29.33-.7-3.6-1.33-6.89-2.07-10.69,3.1-.74,6.06-1.44,9.38-2.25h0Z"/>
  <path class="st2" d="M487.92,210.5c.71,3.85,1.47,8.16,2.03,12.49.31,2.38.28,4.8.4,7.32,12.02-2.93,23.42-5.78,34.87-8.43,2.33-.54,4.83-.34,7.5-.17-11.99,3.12-24.24,5.93-36.47,8.77-2.23.52-4.44,1.17-7.31,1.94-.36-7.4-.71-14.42-1.02-21.91h0Z"/>
  <path class="st2" d="M542.3,230.82c.16-2.42.66-4.99,1.11-7.57.57-3.24.78-6.54,5.39-6.9.83-.07,1.94-2.73,2.01-4.24.04-.98-1.39-2.65-2.46-2.96-6.89-2.02-7.65-3-6.81-10.82.84,2.6,1.45,5.51,2.09,8.41.06.28.4.5.73.89,2.12-.46,4.32-.94,6.83-1.49.88,3.54,1.7,6.86,2.68,10.83-6.41-.25-9.3,2.65-9.11,8.79.05,1.61-1.39,3.28-2.45,5.07h-.01Z"/>
  <path class="st2" d="M465.75,235.78c1.36-8.99,2.71-17.98,4.13-27.39,1.25.53,2.99,1.27,4.95,2.27.23.26.15.38-.29.39-1.49,1.06-3.18,1.95-3.49,3.19-1.83,7.23-3.33,14.54-5.04,21.75-.09-.07-.26-.21-.26-.21Z"/>
  <path class="st2" d="M693.58,239.72c1.62,5.66,7.17,2.59,10.46,5.17,1.25-4.2,2.33-7.81,3.69-11.65-.52,3.98-1.32,8.2-2.27,13.18-4.02-1-7.69-1.74-11.21-2.94-.63-.22-.63-2.31-.67-3.76h0Z"/>
  <path class="st2" d="M673.8,210.44c-.39,2.95.8,4.47,4.14,5.13,5.29,1.05,10.47,2.67,15.91,4.38-7.07-1.31-14.35-2.95-22.41-4.76.85-1.83,1.48-3.17,2.35-4.75h.01Z"/>
  <path class="st2" d="M532.9,222.36c.18,3.1-3.26,5.98-8.27,6.6-1.27.16-2.57.15-4.44.25.66,1.94,1.2,3.54,1.75,5.5-1.57-1.48-3.14-3.34-4.32-4.73,5.11-2.44,10.16-4.85,15.29-7.62h0Z"/>
  <path class="st2" d="M522.95,237.39c4.41-1.04,8.85-1.72,13.69-2.38-3.33,1.46-7.04,3.02-10.85,4.23-.71.23-1.87-.96-2.84-1.85h0Z"/>
  <path class="st2" d="M483.97,181.45c3.5,4.21,3.24,9.52,2.54,15.19-1.02-4.71-1.8-9.73-2.54-15.19Z"/>
  <path class="st2" d="M472.09,183.35c2.72-.23,5.63-.18,8.93-.02-.32,1.56-1.05,3.01-1.96,4.84-2.5-1.66-4.64-3.1-6.97-4.82h0Z"/>
  <path class="st2" d="M697.99,223.36c-1.05,4.84-2.25,10.04-3.75,15.44,1-4.89,2.3-9.99,3.75-15.44Z"/>
  <path class="st2" d="M471.68,246.36c-2.75-1.22-5.38-2.56-8.35-4.08.65-2.03,1.29-4.01,2.17-6.25.24-.25.41-.11.47.34-.26,1.87-.58,3.29-.89,4.66,2.42,1.72,4.68,3.34,6.94,4.95,0,0-.22.26-.33.38h-.01Z"/>
  <path class="st2" d="M470.66,178.07c.62,1.33.93,2.8,1.27,4.65-1.2-.08-2.42-.53-3.94-1.1.9-1.29,1.64-2.35,2.67-3.55h0Z"/>
  <path class="st2" d="M472.7,175.11c-.17.82-.62,1.81-1.41,2.82.14-.87.64-1.76,1.41-2.82Z"/>
  <path class="st2" d="M537.35,235.04c.44-.67,1.2-1.35,2.31-2.03-.43.67-1.21,1.34-2.31,2.03Z"/>
  <path class="st2" d="M694.55,220.52c.94,0,2.1.23,3.39.82-.97.05-2.06-.26-3.39-.82Z"/>
  <path class="st2" d="M482.56,181.46c-.35-.13-.41-.39-.51-1.05.52-.26,1.08-.12,1.79.28-.23.39-.61.51-1.28.77Z"/>
  <path class="st2" d="M521.93,235.33c.33.17.69.64,1.03,1.43-.34-.17-.68-.65-1.03-1.43Z"/>
  <path class="st2" d="M481.66,183.19c-.17-.19-.12-.55.16-1.06.18.19.12.54-.16,1.06Z"/>
  <path class="st2" d="M540.26,232.94c-.07-.2.1-.48.51-.85.07.2-.1.49-.51.85Z"/>
  <path class="st15" d="M516.97,372.89c6.17-1.76,11.96-4.34,17.88-4.66,9.58-.51,19.36-.37,28.83,1.03,10.67,1.58,15.17,8.11,15.18,18.78,0,6.5,0,13,.01,19.5.02,7.68-3.09,13.7-9.16,18.46-8.04,6.3-17.3,9.14-27.24,9.79-6.6.43-13.25.08-20.17.08v-7.51c3.29,0,6.58.27,9.8-.07,4.42-.47,9-.8,13.13-2.27,8.52-3.02,11.31-8.07,10.67-17.07-11.17,6.81-23.05,5.21-34.58,1.67-6.9-2.12-11.43-7.29-10.41-15.58.36-2.95.29-6.01,0-8.99-.52-5.48,1.22-9.8,6.05-13.16M533.01,392.39c.03,9.24,1.7,11.83,8.63,13.37,8.41,1.87,14.47-2.84,14.48-11.28,0-3.33-.17-6.68.03-10,.28-4.75-2.56-7.1-6.44-8.32-10.13-3.19-16.67,1.72-16.69,12.28v3.94h-.01Z"/>
  <path class="st13" d="M677.45,394.45c9.49-7.88,18.59-15.68,27.99-23.09,2.26-1.78,5.47-2.97,8.34-3.21,5.77-.49,11.6-.15,17.97-.15v36.05c3.9.2,7.3.38,10.98.57v8.2h-10.68v22.69h-22.81v-22.41h-44.73c-1.11-4.55-.88-7.82,3.12-10.41,3.46-2.25,6.38-5.32,9.83-8.24M709.15,391.56v-10.64c-9.58,8.08-18.07,15.24-27.24,22.98h27.24v-12.34Z"/>
  <path class="st31" d="M627,367.99c6.45.41,12.56.12,18.32,1.4,9.7,2.15,14.19,7.88,13.54,16.67-.21,2.83-1.7,6.47-3.84,8.11-7.9,6.02-16.35,11.31-24.54,16.96-3.82,2.64-7.64,5.3-11.22,8.25-1.84,1.51-3.15,3.66-5.71,6.73h45.18v9.44h-67.07c-1.26-5.43-1.01-10.65,3.76-14.34,6.28-4.86,12.92-9.27,19.38-13.9,6.06-4.35,12.27-8.51,18.06-13.19,3.9-3.15,5.36-7.76,3.45-12.58-1.93-4.88-6.36-5.91-11.14-5.86-4.5.04-9-.02-13.49.09-3.91.1-7.06,1.45-8.79,5.36-.4.89-1.86,1.73-2.9,1.84-2.61.26-5.27.09-7.94.09.65-7.39,5.15-12.66,13.08-13.85,7.02-1.05,14.24-.85,21.87-1.2v-.02Z"/>
  <path class="st16" d="M470.11,415v-31.84h-10.14c-1.98-6.86-1.8-7.4,4.36-9.22,8.49-2.51,16.48-7.4,26.3-5.61v67.26h-20.52v-20.6h0Z"/>
  <path class="st39" d="M201.94,417.91c.7-1.51,1.28-2.65,2.01-4.1,5.37,2.31,10.5,4.52,16.03,6.91-2.91,6.79-5.71,13.31-8.72,20.32-5.45-2.34-10.7-4.58-16.29-6.98,2.39-5.52,4.62-10.65,6.98-16.15h0Z"/>
  <path class="st39" d="M183.57,460.52c2-4.58,3.83-8.82,5.91-13.68,5.36,2.32,10.54,4.56,16.22,7.01-2.9,6.71-5.62,13.01-8.57,19.83-5.46-2.34-10.56-4.52-16.09-6.89.84-2.11,1.59-4.03,2.53-6.28h0Z"/>
  <path class="st25" d="M355.93,275.07c3.27,3.51,6.53,7.02,9.35,10.8-3.27,2.55-6.15,4.76-8.91,7.11-12.48,10.64-24.92,21.33-37.37,32-2.63-2.79-5.26-5.59-7.54-8.69,6.69-4.96,13.01-9.61,19.66-14.49-3.32-3.82-5.99-6.89-8.87-10.21-4.87,4.26-9.34,8.17-14.1,12.34-2.37-2.8-4.69-5.52-7.02-8.28,4.89-4.17,9.43-8.04,14.23-12.13-2.17-2.45-4.09-4.62-6.12-6.91-1.76,1.49-3.13,2.67-4.53,3.83-3.9,3.22-7.82,6.43-11.98,9.42-2.67-2.16-5.09-4.1-7.94-6.39,15.55-13.33,29.8-25.55,44.39-38.06-.34-.73-.88-1.89-1.42-3.06,1.06.53,2.44.81,3.12,1.65,2.76,3.39,5.31,6.96,7.56,10.76-1.39-.47-2.4-1.24-2.59-1.38-5.84,5.15-11.43,10.08-17.27,15.22,2.13,2.4,4.04,4.56,6.13,6.91,4.88-4.23,9.34-8.09,14.1-12.21,2.43,2.85,4.72,5.54,6.99,8.2-1.71,1.63-3.03,2.9-4.93,4.71,4.12.39,7.37.71,10.61,1.02.09,1.9.17,3.6.29,6.09,2.58-2.84,6.62-3.9,4.15-8.23M339.68,292.86c2.32-1.63,4.63-3.26,8.07-5.68-5.13-.63-8.66-1.06-12.12-1.48.16-1.89.29-3.51.51-6.11-1.91,1.79-3.15,2.94-4.51,4.21,2.69,3.14,5.07,5.91,8.04,9.07h0Z"/>
  <path class="st39" d="M293,290.07c3.91-3.21,7.82-6.42,11.72-9.64,1.4-1.16,2.77-2.34,4.53-3.83,2.03,2.29,3.95,4.47,6.12,6.91-4.8,4.09-9.34,7.96-14.23,12.13,2.34,2.75,4.65,5.48,7.02,8.28,4.76-4.16,9.23-8.08,14.1-12.34,2.88,3.32,5.55,6.39,8.87,10.21-6.65,4.89-12.97,9.53-19.65,14.14-.35-.04-.4-.01-.44-.28-.32-.47-.61-.68-.89-.89,0,0-.02.12-.04-.16-.31-.49-.6-.7-.89-.9,0,0,0,.12-.05-.21-.75-1.05-1.45-1.77-2.14-2.48-.04-.35-.19-.64-.7-1.19-.25-.33-.32-.79-.41-1.01-.27-.51-.52-.71-.87-.82-.03,0,0-.06-.09-.26-.25-.47-.47-.65-.83-.77-.07,0-.05-.14-.13-.31-.22-.39-.41-.53-.91-.8-.85-.72-1.46-1.26-2.07-1.79,0,0,0-.05-.07-.3-.26-.56-.53-.74-.88-.79,0,0-.04.04-.03-.2.01-.24-.04-.69-.12-.92-.27-.53-.52-.74-1.07-.91-.22-.07-.67-.16-.67-.16,0,0-.03.11-.01-.16-.02-.43-.06-.59-.18-.94-.23-.41-.44-.57-.94-.87-1.47-1.45-2.69-2.68-3.92-3.91,0,0-.05.09-.03-.15s-.09-.66-.08-1.06c.01-1.47.02-2.54.02-3.61h-.04Z"/>
  <path class="st34" d="M355.95,275.06c2.46,4.35-1.58,5.41-4.16,8.25-.12-2.49-.2-4.18-.29-6.09-3.25-.31-6.5-.62-10.61-1.02,1.89-1.81,3.22-3.08,4.93-4.71-2.27-2.66-4.55-5.34-6.99-8.2-4.75,4.12-9.22,7.99-14.1,12.21-2.08-2.35-4-4.51-6.13-6.91,5.84-5.15,11.43-10.07,17.27-15.22.2.15,1.21.91,2.56,1.74.34.06.41.03.45.3.36.51.67.74.99.98,3.74,4.48,7.48,8.95,11.61,13.84.68.65.96.89,1.25,1.13,0,0,0-.15.04.15.32.49.6.68.89.88,0,0,.03-.16.06.17.44.69.86,1.06,1.27,1.43,0,0,0,.03.08.29.35.44.62.62.89.81,0,0,.01-.04,0-.02h0Z"/>
  <path class="st29" d="M292.75,289.85c.25,1.29.24,2.36,0,3.81-.24.38-.7.28-.7.28,0,0-.05.06-.09-.22-.33-.46-.62-.65-.9-.83-3.34-4.21-6.67-8.43-10.28-12.99,10.11-8.73,20.07-17.33,30.47-26.33.65-.71.88-1.01,1.1-1.32,0,0-.14,0,.15,0,.5-.29.71-.56.92-.82,0,0-.25,0,.13-.06.74-.49,1.1-.9,1.46-1.31,0,0,.02,0,.29-.07.45-.34.63-.62.82-.9,0,0-.08-.04.2-.07.48-.32.69-.6.89-.88,0,0-.1-.02.17-.04.48-.32.68-.62.89-.92,0,0-.11,0,.23-.05,1.78-1.38,3.23-2.7,4.67-4.03.33,0,.59-.15,1.14-.72.59-.61.83-.92,1.07-1.22.27.13.56.17,1.19.34.65.41.97.62,1.29.82,0,0-.04.03-.04.05.53,1.18,1.07,2.34,1.41,3.08-14.59,12.51-28.84,24.72-44.39,38.06,2.85,2.29,5.27,4.23,7.94,6.39l-.03-.04Z"/>
  <path class="st9" d="M319.01,324.99c12.46-10.68,24.9-21.36,37.37-32.01,2.76-2.35,5.63-4.56,8.8-6.76.34.08.39.05.49.33.51.65.91,1.03,1.32,1.42,0,0,0,.05.09.3.36.45.62.65.88.85,0,.39,0,.78-.27,1.55-.46.67-.65.97-.84,1.27,0,0,.08.01-.19.04-.49.31-.7.6-.91.89,0,0,.11,0-.2.04-.85.6-1.38,1.17-1.91,1.74,0,0,.13.14-.18.13-.69.4-1.07.81-1.46,1.23-.29.15-.58.3-1.22.76-.55.6-.74.89-.94,1.18,0,0,.09.02-.19.05-.52.32-.76.62-1,.91-10.86,9.23-21.7,18.48-32.62,27.63-1.05.88-2.64,1.13-4.37,1.23-.74-.67-1.08-.89-1.43-1.11,0,0,.02.18.01-.14-.41-.72-.82-1.11-1.23-1.5,0,0-.02,0-.01,0v-.03Z"/>
  <path class="st25" d="M293.07,295.26c1.25.86,2.47,2.09,3.91,3.73.22.41.22.8.17.86s-.16.18-.16.18c-1.32-1.47-2.63-2.93-3.93-4.77h0Z"/>
  <path class="st25" d="M322.77,243.05c-1.06,1.34-2.51,2.67-4.27,4.1,1.09-1.31,2.49-2.71,4.27-4.1Z"/>
  <path class="st25" d="M301,304.4c.6.18,1.21.72,2.04,1.62.22.37.21.73.14.8s-.19.22-.19.22c-.66-.76-1.32-1.52-1.99-2.63h0Z"/>
  <path class="st25" d="M307.01,311.38c.7.35,1.39,1.07,2.19,2.08-.67-.37-1.42-1.04-2.19-2.08Z"/>
  <path class="st25" d="M364.01,294.71c.17-.64.71-1.21,1.53-1.86-.2.59-.68,1.26-1.53,1.86Z"/>
  <path class="st25" d="M314.67,250.05c-.04.38-.4.8-1.01,1.31.06-.36.38-.82,1.01-1.31Z"/>
  <path class="st25" d="M319.05,325.32c.38.07.79.46,1.28,1.13-.36-.08-.81-.45-1.28-1.13Z"/>
  <path class="st25" d="M366.96,287.65c-.37-.07-.78-.45-1.27-1.11.36.08.8.44,1.27,1.11Z"/>
  <path class="st25" d="M362.33,295.96c.06-.38.45-.8,1.11-1.29-.08.37-.44.81-1.11,1.29Z"/>
  <path class="st25" d="M354.95,273.66c-.38-.05-.8-.42-1.3-1.05.36.07.82.4,1.3,1.05Z"/>
  <path class="st25" d="M316.93,248.17c.05.21-.15.49-.61.85-.05-.21.15-.49.61-.85Z"/>
  <path class="st25" d="M303.99,308.04c-.31-.12-.57-.31-.89-.79-.11-.22.01-.36.28-.41.27-.05.67-.02.67-.02,0,0-.02.14.06.35s.09.63.04.69c-.06.06-.16.19-.16.19h0Z"/>
  <path class="st25" d="M355.87,274.85c-.19.05-.46-.14-.79-.57.27-.15.53.05.79.57Z"/>
  <path class="st25" d="M367.88,288.87c-.18.03-.44-.17-.77-.61.26-.13.51.08.77.61Z"/>
  <path class="st25" d="M367.11,291.83c-.06-.21.13-.5.59-.88.06.21-.14.5-.59.88Z"/>
  <path class="st25" d="M366.03,292.79c-.06-.23.15-.51.63-.87.06.22-.15.51-.63.87Z"/>
  <path class="st25" d="M291.15,293.13c.2-.05.49.13.85.57-.2.06-.48-.14-.85-.57Z"/>
  <path class="st25" d="M292.15,294.17c-.11-.24.35-.13.58-.11.23.02.35.44.37.65-.26.04-.56-.13-.95-.54h0Z"/>
  <path class="st25" d="M360.1,297.84c-.06-.2.14-.5.59-.86.06.21-.14.49-.59.86Z"/>
  <path class="st25" d="M358.94,298.82c-.05-.23.19-.52.71-.89.05.22-.19.52-.71.89Z"/>
  <path class="st25" d="M298.03,299.85c.04.17.08.33.16.75-.28.13-.6,0-1.06-.35-.14-.22-.04-.34.22-.38s.68-.02.68-.02Z"/>
  <path class="st25" d="M298.19,301.03c-.04-.27.4-.17.62.13s.27.75.24.79-.09.11-.09.11c-.24-.25-.49-.51-.77-1.03Z"/>
  <path class="st25" d="M299.97,302.07s.05.44.06.66c-.32.16-.6,0-.94-.47-.13-.21-.07-.28.18-.28s.7.09.7.09Z"/>
  <path class="st25" d="M300.13,303.18c.27-.17.54.01.77.57-.26.14-.51-.06-.77-.57Z"/>
  <path class="st25" d="M325.06,241.19c.05.23-.19.53-.71.93-.05-.22.18-.54.71-.93Z"/>
  <path class="st25" d="M304.98,309.05c-.31-.12-.57-.31-.88-.8-.11-.21,0-.34.25-.37.26-.03.67.04.67.04,0,0-.03.06,0,.28.03.23.08.68.05.72s-.09.11-.09.11v.02Z"/>
  <path class="st25" d="M305.99,309.03s.08.46.09.69c-.33.17-.61.01-.97-.46-.13-.21-.07-.29.18-.29s.7.07.7.07h0Z"/>
  <path class="st25" d="M309.26,313.99c.24-.08.54.13.91.61-.23.07-.55-.13-.91-.61Z"/>
  <path class="st25" d="M310.21,315.04c.22-.06.51.15.86.63-.22.06-.51-.15-.86-.63Z"/>
  <path class="st25" d="M320.32,326.96c.26-.1.61.12,1.09.62-.24.09-.63-.1-1.09-.62Z"/>
  <path class="st25" d="M353.64,272.08c-.28.11-.56-.09-.94-.53.25-.09.59.07.94.53Z"/>
  <path class="st25" d="M352.69,271.06c-.25.07-.53-.17-.92-.68.23-.05.55.16.92.68Z"/>
  <path class="st25" d="M339.8,256.09c-.24.06-.55-.17-.95-.7.24-.06.56.17.95.7Z"/>
  <path class="st25" d="M312.03,252.3c.08.25-.14.56-.64.98-.07-.23.13-.58.64-.98Z"/>
  <path class="st25" d="M313.1,251.38c.09.29-.11.56-.57.9-.08-.26.1-.59.57-.9Z"/>
  <path class="st25" d="M315.86,249.14c.05.2-.14.47-.57.81-.16-.28.04-.54.57-.81Z"/>
  <path class="st25" d="M317.97,247.21c.07.23-.13.53-.61.9-.07-.23.13-.53.61-.9Z"/>
  <path class="st25" d="M327.75,241.98c-.23.09-.55-.12-.99-.6.22-.08.56.11.99.6Z"/>
  <path class="st28" d="M499.05,208.38c3.35-1.94,6.71-3.44,10.07-4.95.17.35.35.7.52,1.05-.95,1.1-1.9,2.2-3.13,3.61,2.85,2.04,5.61,4.01,9.35,6.69-5.83,1.41-10.64,2.57-15.89,3.83-.33-3.59-.62-6.7-.92-10.23h0Z"/>
  <path class="st28" d="M524.26,207.48c-2.42-1.73-4.59-3.23-7.43-5.22,4.87-1.22,8.97-2.25,13.68-3.44.69,4.08,1.31,7.76,2.02,11.93-3.38.81-6.49,1.56-9.11,2.19.39-1.87.75-3.56.84-5.47h0Z"/>
  <path class="st29" d="M515.48,180.15c3.57-.79,6.77-1.52,10.56-2.37.74,3.49,1.44,6.76,2.22,10.43-3.12.74-5.79,1.38-8.77,2.09,1.23-6.14-5.54-5.34-7.14-9.08.92-.33,1.84-.67,3.13-1.07h0Z"/>
  <path class="st28" d="M506.14,183.04c-1.25,1.52-2.51,3.04-3.91,4.74,2.15,1.49,4.28,2.96,7.12,4.93-4.14,1.01-7.53,1.84-11.57,2.83-.44-3.76-.81-6.96-1.25-10.75,3.05-.66,5.9-1.28,9.15-1.81.41.08.46.06.46.06h0Z"/>
  <path class="st28" d="M506.08,183.1l.12-.17s-.22.09-.14.11c.08,0,.03.04.02.06h0Z"/>
  <path class="st8" d="M986.59,448.56c.49-2.27,1.14-4.24,2.17-7.33,1.61,3.98,2.8,6.93,4.49,11.11-2.88-1.54-4.69-2.51-6.66-3.78Z"/>
  <path class="st1" d="M569.25,1016.85c2.58.25,4.74.37,6.87.72,6.53,1.06,8.62,3.77,7.94,10.1-.64,5.94-3.38,8.37-9.65,8.1-4.29-.18-8.57-.76-13.42-1.21.64-6.19,1.26-12.17,1.9-18.44,2.36.28,4.14.49,6.36.72h0Z"/>
  <path class="st35" d="M255.38,877.46c-.26.59-.74.92-1.22,1.24,0-.54.02-1.09.27-1.83.4-.02.56.15.95.58h0Z"/>
  <path class="st33" d="M154.87,651.41c-10-6.64-10.11-17.34-.09-22.91,10.44-5.8,21.76-6.85,33.3-3.51,5.88,1.7,9.32,5.84,9.66,11.95.33,5.74-2.68,9.95-7.73,12.33-11.25,5.29-22.87,6.65-35.15,2.15h0Z"/>
  <path class="st33" d="M858.8,933.05c10.79.49,26.12,21.48,26,33.31-.09,9.32-8.74,15.01-17.49,11.66-9.97-3.81-22.15-21.18-22.27-31.76-.08-7.29,5.15-12.48,13.76-13.21h0Z"/>
  <path class="st14" d="M1043.56,643.1c-8.39-2.38-16.59-5.12-24.79-7.87.07-.35.14-.7.21-1.06,8.38-1.49,16.76-2.98,25.8-4.59-.37,4.71-.71,8.93-1.22,13.51h0Z"/>
  <path class="st14" d="M236.61,804.6c-5.99,5.49-11.98,10.99-18.14,16.64-1.73-2.91-4.06-6.84-6.74-11.35,8.01-2.08,15.66-4.07,23.9-5.86.72.33.85.45.98.57h0Z"/>
  <path class="st14" d="M236.03,804.03c.33-.37.83-.54,1.34-.7-.13.31-.25.63-.57,1.11-.33.04-.46-.08-.77-.4h0Z"/>
  <path class="st5" d="M472.33,246.12c-2.57-1.75-4.83-3.36-7.25-5.09.31-1.37.62-2.8.98-4.59,1.65-7.66,3.15-14.97,4.98-22.19.31-1.24,2-2.13,3.46-3.13,3.95,1.71,5.16,4.48,4.53,8.31-1.38,8.37-2.6,16.78-4.06,25.14-.12.68-1.52,1.14-2.64,1.57v-.02Z"/>
  <path class="st19" d="M533.01,391.92v-3.47c.02-10.56,6.56-15.47,16.69-12.28,3.88,1.22,6.73,3.57,6.44,8.32-.2,3.32-.02,6.66-.03,10-.01,8.44-6.07,13.15-14.48,11.28-6.93-1.55-8.6-4.13-8.63-13.84h.01Z"/>
  <path class="st3" d="M709.15,392.04v11.86h-27.24c9.18-7.74,17.67-14.9,27.24-22.98v11.12h0Z"/>
  <path class="st8" d="M339.38,292.67c-2.67-2.96-5.05-5.73-7.74-8.87,1.36-1.27,2.59-2.42,4.51-4.21-.22,2.6-.35,4.22-.51,6.11,3.46.42,6.99.86,12.12,1.48-3.44,2.42-5.75,4.05-8.37,5.49h-.01Z"/>
  <path class="st29" d="M297.95,299.67c.08.18-.34.16-.54.14-.21-.02-.21-.41-.18-.6.29-.11.5.05.73.46h-.01Z"/>
  <path class="st29" d="M299.89,301.84c.08.23-.36.15-.58.11s-.27-.5-.27-.73c.33-.12.59.08.85.61h0Z"/>
  <path class="st29" d="M303.97,306.64c.08.17-.32.14-.52.12-.2-.02-.19-.38-.16-.56.27-.1.47.05.69.44h-.01Z"/>
  <path class="st29" d="M304.94,307.72c.08.21-.32.14-.53.1-.2-.03-.22-.45-.23-.67.28-.09.5.1.75.56h.01Z"/>
  <path class="st29" d="M305.9,308.81c.09.23-.35.16-.58.13-.22-.04-.28-.49-.27-.72.33-.12.58.08.85.59h0Z"/>
</svg>